<?xml version="1.0" encoding="UTF-8"?>
<svg xmlns="http://www.w3.org/2000/svg" xmlns:xlink="http://www.w3.org/1999/xlink" width="321.43pt" height="586.34pt" viewBox="0 0 321.43 586.34" version="1.1">
<defs>
<clipPath id="clip1">
  <path d="M 123 573 L 137 573 L 137 586.339844 L 123 586.339844 Z M 123 573 "/>
</clipPath>
<clipPath id="clip2">
  <path d="M 197 312 L 321.429688 312 L 321.429688 359 L 197 359 Z M 197 312 "/>
</clipPath>
</defs>
<g id="surface1">
<path style=" stroke:none;fill-rule:nonzero;fill:rgb(100%,82.03125%,19.993591%);fill-opacity:1;" d="M 279.710938 160.832031 C 275.832031 158.257813 265.382813 155.691406 255.914063 153.253906 L 239.558594 148.042969 C 239.816406 139.148438 239.035156 130.480469 237.167969 122.257813 C 237.183594 122.257813 243.179688 117.515625 251.722656 110.6875 C 254.644531 108.347656 257.867188 105.761719 261.253906 103.035156 C 268.863281 96.902344 274.699219 92.6875 278.019531 89.539063 L 278.03125 89.527344 C 277.847656 90.074219 271.488281 107.886719 271.488281 127.855469 C 271.488281 134.597656 272.210938 141.585938 274.164063 148.230469 C 275.421875 152.632813 277.234375 156.886719 279.710938 160.832031 "/>
<path style=" stroke:none;fill-rule:nonzero;fill:rgb(100%,82.03125%,19.993591%);fill-opacity:1;" d="M 218.398438 12.8125 C 215.214844 16.683594 210.609375 23.101563 205.945313 29.769531 C 201.144531 36.609375 196.292969 43.714844 192.871094 48.566406 C 184.054688 61.066406 177.660156 62 177.632813 62.011719 C 176.339844 61.675781 175.035156 61.378906 173.714844 61.089844 C 170.132813 60.332031 166.675781 59.746094 163.339844 59.3125 C 157.992188 55.070313 153.996094 44.871094 151.039063 34.257813 C 150.988281 34.070313 150.925781 33.871094 150.875 33.6875 C 147.902344 22.890625 146 11.804688 144.855469 6.332031 C 144.855469 6.332031 163.078125 18.496094 188.742188 18.496094 C 197.847656 18.496094 207.898438 16.96875 218.398438 12.8125 "/>
<path style=" stroke:none;fill-rule:nonzero;fill:rgb(100%,82.03125%,19.993591%);fill-opacity:1;" d="M 142.652344 6.332031 C 141.757813 11.65625 140.863281 22.28125 139.53125 32.765625 C 139.382813 33.972656 139.234375 35.167969 139.070313 36.359375 C 136.855469 52.519531 131.507813 60.15625 131.496094 60.183594 C 126.070313 61.316406 121.121094 62.933594 116.605469 64.921875 C 111.804688 64.5625 105 59.597656 98.554688 53.925781 C 97.945313 53.390625 97.347656 52.84375 96.753906 52.296875 C 91.003906 47.046875 85.742188 41.511719 82.71875 38.550781 C 82.71875 38.550781 116.382813 48.875 142.652344 6.332031 "/>
<path style=" stroke:none;fill-rule:nonzero;fill:rgb(100%,82.03125%,19.993591%);fill-opacity:1;" d="M 313.621094 315.539063 C 313.621094 315.539063 313.3125 315.890625 312.777344 316.5625 C 312.191406 317.28125 311.347656 318.378906 310.363281 319.78125 C 306.558594 325.167969 300.609375 335.097656 299.253906 346.167969 C 298.832031 349.539063 298.832031 353.019531 299.464844 356.503906 C 300.300781 361.257813 302.289063 366.019531 305.898438 370.5625 C 305.945313 370.621094 305.984375 370.671875 306.035156 370.734375 C 306.035156 370.734375 303.730469 371.171875 300.261719 372.238281 C 293.246094 374.378906 281.464844 379.058594 274.128906 387.839844 C 270.480469 392.191406 267.921875 397.542969 267.585938 404.097656 L 213.011719 380.449219 C 210.734375 373.621094 208.261719 366.355469 205.558594 358.53125 C 198.332031 337.570313 196.40625 318.203125 197.660156 300.015625 L 206.691406 297.714844 L 210.425781 293.585938 L 244.308594 255.980469 C 244.308594 255.980469 246.136719 263.917969 253.601563 269.515625 C 255.453125 270.90625 257.667969 272.152344 260.28125 273.085938 C 265.207031 274.863281 271.578125 275.558594 279.773438 274.117188 C 280.273438 274.03125 280.769531 273.929688 281.265625 273.832031 C 281.265625 273.832031 280.570313 284.664063 286.691406 295.625 C 288.121094 298.199219 289.9375 300.773438 292.238281 303.226563 C 297.003906 308.324219 303.84375 312.855469 313.621094 315.539063 "/>
<path style=" stroke:none;fill-rule:nonzero;fill:rgb(94.921875%,70.896912%,5.883789%);fill-opacity:1;" d="M 250.375 266.609375 C 234.152344 291.328125 202.703125 315.265625 202.703125 315.265625 L 210.265625 293.585938 L 244.152344 255.980469 C 244.152344 255.980469 242.910156 261.011719 250.375 266.609375 "/>
<path style=" stroke:none;fill-rule:nonzero;fill:rgb(94.921875%,70.896912%,5.883789%);fill-opacity:1;" d="M 300.261719 372.238281 C 293.246094 374.378906 281.464844 379.058594 274.128906 387.839844 C 251.609375 378.957031 215.488281 372.179688 215.488281 372.179688 C 230.363281 361.15625 282.871094 369.191406 300.261719 372.238281 "/>
<path style=" stroke:none;fill-rule:nonzero;fill:rgb(100%,100%,39.988708%);fill-opacity:1;" d="M 281.265625 273.832031 C 281.265625 273.832031 225.152344 312.195313 205.558594 314.820313 C 205.558594 314.820313 240.566406 294.542969 260.28125 273.085938 C 265.207031 274.863281 271.578125 275.558594 279.773438 274.117188 C 280.273438 274.03125 280.769531 273.929688 281.265625 273.832031 "/>
<path style=" stroke:none;fill-rule:nonzero;fill:rgb(100%,100%,39.988708%);fill-opacity:1;" d="M 313.621094 315.539063 C 313.621094 315.539063 313.3125 315.890625 312.777344 316.5625 C 286.589844 319.957031 215.488281 334.847656 215.488281 334.847656 C 227.800781 330.53125 267.769531 313.648438 292.238281 303.226563 C 297.003906 308.324219 303.84375 312.855469 313.621094 315.539063 "/>
<path style=" stroke:none;fill-rule:nonzero;fill:rgb(100%,100%,39.988708%);fill-opacity:1;" d="M 305.898438 370.5625 C 280.046875 363.121094 217.886719 355.90625 217.886719 355.90625 C 234.742188 349.128906 276.378906 353.394531 299.464844 356.503906 C 300.300781 361.257813 302.289063 366.019531 305.898438 370.5625 "/>
<path style=" stroke:none;fill-rule:nonzero;fill:rgb(94.921875%,70.896912%,5.883789%);fill-opacity:1;" d="M 283.863281 290.652344 C 258.949219 311.722656 204.15625 337.933594 203.160156 338.292969 L 209.738281 332.148438 C 224.441406 325.554688 261.003906 291.90625 279.773438 274.117188 C 280.273438 274.03125 280.769531 273.929688 281.265625 273.832031 C 281.265625 273.832031 277.746094 279.691406 283.863281 290.652344 "/>
<path style=" stroke:none;fill-rule:nonzero;fill:rgb(94.921875%,70.896912%,5.883789%);fill-opacity:1;" d="M 310.363281 319.78125 C 306.558594 325.167969 301.3125 331.042969 299.957031 342.113281 C 268.496094 342.078125 213.011719 356.46875 213.011719 356.46875 C 223.671875 342.570313 294.277344 323.886719 310.363281 319.78125 "/>
<path style=" stroke:none;fill-rule:nonzero;fill:rgb(63.867188%,26.660156%,0%);fill-opacity:1;" d="M 215.300781 378.347656 L 265.21875 399.976563 C 268.894531 379.929688 291.683594 371.609375 301.292969 368.964844 C 288.636719 348.742188 302.703125 325.546875 308.878906 317.03125 C 283.167969 308 279.101563 285.839844 278.511719 277.191406 C 256.167969 280.429688 246.820313 268.300781 243.347656 261.28125 L 208.792969 299.617188 C 208.417969 300.03125 207.929688 300.328125 207.386719 300.46875 L 200.359375 302.253906 C 199.316406 321.082031 201.898438 339.210938 208.238281 357.609375 C 211.019531 365.691406 213.28125 372.324219 215.300781 378.347656 Z M 267.585938 406.929688 C 267.203125 406.929688 266.820313 406.851563 266.460938 406.695313 L 211.890625 383.046875 C 211.152344 382.730469 210.585938 382.109375 210.328125 381.347656 C 208.222656 375.054688 205.785156 367.894531 202.878906 359.457031 C 196.058594 339.660156 193.425781 320.152344 194.828125 299.820313 C 194.914063 298.597656 195.773438 297.570313 196.960938 297.269531 L 205.15625 295.183594 L 242.199219 254.089844 C 242.910156 253.304688 243.996094 252.980469 245.019531 253.242188 C 246.042969 253.507813 246.832031 254.320313 247.070313 255.351563 C 247.277344 256.214844 252.511719 276.742188 280.707031 271.058594 C 281.566406 270.878906 282.46875 271.121094 283.132813 271.699219 C 283.796875 272.28125 284.152344 273.136719 284.097656 274.015625 C 284.023438 275.234375 282.660156 304.101563 314.371094 312.808594 C 315.3125 313.066406 316.054688 313.789063 316.335938 314.726563 C 316.617188 315.660156 316.394531 316.675781 315.75 317.410156 C 315.410156 317.800781 290.472656 346.875 308.238281 368.960938 C 308.863281 369.738281 309.035156 370.78125 308.691406 371.71875 C 308.347656 372.652344 307.539063 373.339844 306.558594 373.523438 C 306.214844 373.589844 271.644531 380.480469 270.417969 404.238281 C 270.367188 405.167969 269.867188 406.015625 269.078125 406.503906 C 268.625 406.785156 268.105469 406.929688 267.585938 406.929688 "/>
<path style=" stroke:none;fill-rule:nonzero;fill:rgb(100%,82.03125%,19.993591%);fill-opacity:1;" d="M 218.863281 260.769531 C 218.863281 260.769531 202.644531 272.289063 199.144531 291.636719 C 199.144531 291.636719 202.921875 267.375 203.429688 266.515625 C 203.933594 265.652344 218.863281 260.769531 218.863281 260.769531 "/>
<path style=" stroke:none;fill-rule:nonzero;fill:rgb(100%,64.256287%,0%);fill-opacity:1;" d="M 204.808594 356.289063 C 205.054688 357.035156 205.300781 357.78125 205.558594 358.535156 C 206.859375 362.308594 208.101563 365.933594 209.304688 369.464844 C 232.667969 368.617188 284.558594 367.398438 307.875 372.171875 C 307.875 372.171875 238.914063 353.007813 204.808594 356.289063 "/>
<path style=" stroke:none;fill-rule:nonzero;fill:rgb(63.867188%,26.660156%,0%);fill-opacity:1;" d="M 205.878906 268.382813 C 205.769531 268.902344 205.636719 269.609375 205.484375 270.46875 C 206.210938 269.476563 206.941406 268.542969 207.664063 267.667969 C 206.9375 267.945313 206.328125 268.1875 205.878906 268.382813 Z M 199.144531 294.472656 C 198.988281 294.472656 198.832031 294.460938 198.671875 294.433594 C 197.140625 294.175781 196.101563 292.734375 196.34375 291.199219 C 200.203125 266.402344 200.65625 265.636719 200.984375 265.074219 C 201.574219 264.078125 202.035156 263.292969 217.980469 258.074219 C 219.3125 257.644531 220.761719 258.242188 221.394531 259.492188 C 222.023438 260.742188 221.644531 262.265625 220.507813 263.078125 C 220.3125 263.21875 205.171875 274.238281 201.933594 292.144531 C 201.683594 293.511719 200.492188 294.472656 199.144531 294.472656 "/>
<path style=" stroke:none;fill-rule:nonzero;fill:rgb(94.921875%,70.896912%,5.883789%);fill-opacity:1;" d="M 218.863281 260.769531 C 218.863281 260.769531 231.296875 228 246.734375 214.574219 L 222.546875 213.015625 L 209.410156 247.207031 L 218.863281 260.769531 "/>
<path style=" stroke:none;fill-rule:nonzero;fill:rgb(94.921875%,70.896912%,5.883789%);fill-opacity:1;" d="M 236.296875 172.640625 C 235.84375 174.582031 235.339844 176.523438 234.792969 178.464844 C 233.394531 183.425781 231.773438 188.402344 230 193.414063 C 230.003906 193.414063 245.121094 203.921875 251.613281 209.90625 C 251.742188 184.753906 276.226563 165.21875 276.226563 165.21875 L 276.199219 165.222656 C 264.480469 168.558594 236.449219 172.617188 236.296875 172.640625 "/>
<path style=" stroke:none;fill-rule:nonzero;fill:rgb(100%,82.03125%,19.993591%);fill-opacity:1;" d="M 279.859375 83.558594 C 273.230469 83.121094 238.5 96.679688 225.648438 94.789063 C 221.582031 88.632813 216.605469 83.058594 210.710938 78.234375 C 209.304688 75.0625 209.777344 68.292969 211.144531 60.15625 C 212.277344 53.464844 213.992188 45.863281 215.773438 38.601563 C 218.023438 29.320313 220.363281 20.613281 221.621094 15.101563 C 221.621094 15.101563 230.984375 37.878906 247.566406 57.855469 C 253.179688 64.636719 259.621094 71.078125 266.8125 76.21875 C 270.917969 79.152344 275.269531 81.664063 279.859375 83.558594 "/>
<path style=" stroke:none;fill-rule:nonzero;fill:rgb(100%,100%,39.988708%);fill-opacity:1;" d="M 142.652344 6.332031 C 141.757813 11.65625 140.863281 22.28125 139.53125 32.765625 C 139.34375 32.730469 139.246094 32.71875 139.246094 32.71875 C 126.53125 51.511719 96.765625 52.296875 96.765625 52.296875 L 96.753906 52.296875 C 91.003906 47.046875 85.742188 41.511719 82.71875 38.550781 C 82.71875 38.550781 116.382813 48.875 142.652344 6.332031 "/>
<path style=" stroke:none;fill-rule:nonzero;fill:rgb(100%,100%,39.988708%);fill-opacity:1;" d="M 218.398438 12.8125 C 215.214844 16.683594 210.609375 23.101563 205.945313 29.769531 C 205.683594 29.519531 205.558594 29.394531 205.558594 29.394531 C 190.96875 36.871094 165.816406 35.753906 151.039063 34.257813 C 150.988281 34.070313 150.925781 33.871094 150.875 33.6875 C 147.902344 22.890625 146 11.804688 144.855469 6.332031 C 144.855469 6.332031 163.078125 18.496094 188.742188 18.496094 C 197.847656 18.496094 207.898438 16.96875 218.398438 12.8125 "/>
<path style=" stroke:none;fill-rule:nonzero;fill:rgb(94.921875%,70.896912%,5.883789%);fill-opacity:1;" d="M 279.859375 83.558594 C 273.230469 83.121094 238.5 96.679688 225.648438 94.789063 C 221.582031 88.632813 216.605469 83.058594 210.710938 78.234375 C 209.304688 75.0625 209.777344 68.292969 211.144531 60.15625 C 211.53125 62.0625 215.636719 79.589844 237.890625 82.0625 C 249.78125 83.382813 259.808594 79.949219 266.8125 76.21875 C 270.917969 79.152344 275.269531 81.664063 279.859375 83.558594 "/>
<path style=" stroke:none;fill-rule:nonzero;fill:rgb(94.921875%,70.896912%,5.883789%);fill-opacity:1;" d="M 279.710938 160.832031 C 275.832031 158.257813 265.382813 155.691406 255.914063 153.253906 L 239.558594 148.042969 C 239.816406 139.148438 239.035156 130.480469 237.167969 122.257813 C 237.183594 122.257813 243.179688 117.515625 251.722656 110.6875 C 251.722656 110.6875 250.554688 129.644531 254.523438 138.488281 C 256.847656 143.675781 266.550781 146.660156 274.164063 148.230469 C 275.421875 152.632813 277.234375 156.886719 279.710938 160.832031 "/>
<path style=" stroke:none;fill-rule:nonzero;fill:rgb(100%,100%,39.988708%);fill-opacity:1;" d="M 247.566406 57.855469 C 236.882813 55.046875 224.34375 45.816406 215.773438 38.601563 C 218.023438 29.320313 220.363281 20.613281 221.621094 15.101563 C 221.621094 15.101563 230.984375 37.878906 247.566406 57.855469 "/>
<path style=" stroke:none;fill-rule:nonzero;fill:rgb(100%,64.256287%,0%);fill-opacity:1;" d="M 120.414063 66.214844 C 119.394531 66.214844 118.40625 65.65625 117.898438 64.691406 L 108.539063 46.757813 C 107.816406 45.371094 108.355469 43.660156 109.742188 42.933594 C 111.125 42.210938 112.839844 42.746094 113.566406 44.136719 L 122.925781 62.066406 C 123.648438 63.453125 123.113281 65.164063 121.722656 65.890625 C 121.304688 66.109375 120.855469 66.214844 120.414063 66.214844 "/>
<path style=" stroke:none;fill-rule:nonzero;fill:rgb(100%,64.256287%,0%);fill-opacity:1;" d="M 128.203125 63.882813 C 126.777344 63.882813 125.550781 62.808594 125.390625 61.359375 L 122.957031 39.1875 C 122.785156 37.632813 123.910156 36.234375 125.464844 36.0625 C 127.023438 35.894531 128.421875 37.015625 128.59375 38.570313 L 131.027344 60.738281 C 131.195313 62.296875 130.074219 63.695313 128.519531 63.863281 C 128.410156 63.878906 128.308594 63.882813 128.203125 63.882813 "/>
<path style=" stroke:none;fill-rule:nonzero;fill:rgb(100%,64.256287%,0%);fill-opacity:1;" d="M 166.15625 64.089844 C 164.589844 64.089844 163.320313 62.820313 163.320313 61.253906 L 163.320313 27.976563 C 163.320313 26.410156 164.589844 25.144531 166.15625 25.144531 C 167.722656 25.144531 168.992188 26.410156 168.992188 27.976563 L 168.992188 61.253906 C 168.992188 62.820313 167.722656 64.089844 166.15625 64.089844 "/>
<path style=" stroke:none;fill-rule:nonzero;fill:rgb(100%,64.256287%,0%);fill-opacity:1;" d="M 175.925781 66.214844 C 175.636719 66.214844 175.339844 66.167969 175.050781 66.074219 C 173.558594 65.589844 172.742188 63.992188 173.226563 62.503906 L 183.179688 31.835938 C 183.660156 30.347656 185.261719 29.53125 186.75 30.015625 C 188.238281 30.5 189.054688 32.097656 188.570313 33.585938 L 178.621094 64.253906 C 178.230469 65.449219 177.121094 66.214844 175.925781 66.214844 "/>
<path style=" stroke:none;fill-rule:nonzero;fill:rgb(92.96875%,48.242188%,6.665039%);fill-opacity:1;" d="M 214.789063 84.664063 C 214.277344 84.664063 213.757813 84.527344 213.292969 84.238281 C 211.964844 83.410156 211.558594 81.660156 212.386719 80.332031 L 228.351563 54.703125 C 229.179688 53.378906 230.925781 52.972656 232.253906 53.796875 C 233.582031 54.625 233.988281 56.375 233.160156 57.703125 L 217.195313 83.328125 C 216.660156 84.191406 215.734375 84.664063 214.789063 84.664063 "/>
<path style=" stroke:none;fill-rule:nonzero;fill:rgb(92.96875%,48.242188%,6.665039%);fill-opacity:1;" d="M 222.40625 92.355469 C 221.539063 92.355469 220.683594 91.957031 220.128906 91.207031 C 219.195313 89.949219 219.460938 88.175781 220.71875 87.242188 L 240.851563 72.328125 C 242.109375 71.402344 243.886719 71.664063 244.816406 72.921875 C 245.75 74.179688 245.484375 75.953125 244.226563 76.886719 L 224.09375 91.800781 C 223.585938 92.175781 222.992188 92.355469 222.40625 92.355469 "/>
<path style=" stroke:none;fill-rule:nonzero;fill:rgb(63.867188%,26.660156%,0%);fill-opacity:1;" d="M 239.347656 132.835938 C 238.265625 132.835938 237.230469 132.214844 236.757813 131.160156 C 236.117188 129.734375 236.753906 128.054688 238.183594 127.414063 L 261.007813 117.15625 C 262.441406 116.519531 264.113281 117.15625 264.757813 118.582031 C 265.398438 120.011719 264.761719 121.6875 263.332031 122.328125 L 240.507813 132.585938 C 240.128906 132.753906 239.734375 132.835938 239.347656 132.835938 "/>
<path style=" stroke:none;fill-rule:nonzero;fill:rgb(63.867188%,26.660156%,0%);fill-opacity:1;" d="M 264.75 143.171875 L 238.699219 143.171875 C 237.136719 143.171875 235.863281 141.902344 235.863281 140.335938 C 235.863281 138.769531 237.136719 137.5 238.699219 137.5 L 264.75 137.5 C 266.316406 137.5 267.585938 138.769531 267.585938 140.335938 C 267.585938 141.902344 266.316406 143.171875 264.75 143.171875 "/>
<path style=" stroke:none;fill-rule:nonzero;fill:rgb(63.867188%,26.660156%,0%);fill-opacity:1;" d="M 244.859375 188.863281 C 244.609375 188.863281 244.351563 188.832031 244.101563 188.761719 L 232.390625 185.507813 C 230.882813 185.089844 229.996094 183.523438 230.417969 182.015625 C 230.835938 180.507813 232.402344 179.628906 233.90625 180.042969 L 245.617188 183.296875 C 247.125 183.71875 248.007813 185.28125 247.589844 186.789063 C 247.242188 188.042969 246.101563 188.863281 244.859375 188.863281 "/>
<path style=" stroke:none;fill-rule:nonzero;fill:rgb(63.867188%,26.660156%,0%);fill-opacity:1;" d="M 228.070313 227.945313 C 227.726563 227.945313 227.371094 227.882813 227.027344 227.746094 L 218.199219 224.246094 C 216.742188 223.671875 216.03125 222.023438 216.609375 220.566406 C 217.183594 219.109375 218.832031 218.398438 220.289063 218.976563 L 229.117188 222.472656 C 230.574219 223.050781 231.285156 224.699219 230.710938 226.152344 C 230.265625 227.265625 229.199219 227.945313 228.070313 227.945313 "/>
<path style=" stroke:none;fill-rule:nonzero;fill:rgb(63.867188%,26.660156%,0%);fill-opacity:1;" d="M 219.78125 243.058594 C 219.351563 243.058594 218.917969 242.960938 218.511719 242.753906 L 211.890625 239.425781 C 210.492188 238.722656 209.929688 237.019531 210.632813 235.617188 C 211.332031 234.21875 213.039063 233.65625 214.4375 234.359375 L 221.058594 237.691406 C 222.457031 238.394531 223.019531 240.097656 222.316406 241.496094 C 221.820313 242.484375 220.820313 243.058594 219.78125 243.058594 "/>
<path style=" stroke:none;fill-rule:nonzero;fill:rgb(100%,64.256287%,0%);fill-opacity:1;" d="M 198.066406 295.183594 C 197.398438 301.808594 197.140625 308.585938 197.394531 315.539063 C 198.6875 315.398438 199.511719 315.273438 199.511719 315.273438 C 230.101563 288.964844 246.734375 250.910156 246.734375 250.910156 C 223.3125 279.734375 201.777344 293.011719 198.066406 295.183594 "/>
<path style=" stroke:none;fill-rule:nonzero;fill:rgb(100%,64.256287%,0%);fill-opacity:1;" d="M 197.535156 318.5625 C 197.878906 324.488281 198.597656 330.539063 199.761719 336.734375 C 200.601563 336.410156 201.464844 336.070313 202.375 335.691406 C 234.222656 322.421875 283.863281 271.914063 283.863281 271.914063 C 264.707031 286.613281 221.078125 307.65625 197.535156 318.5625 "/>
<path style=" stroke:none;fill-rule:nonzero;fill:rgb(100%,64.256287%,0%);fill-opacity:1;" d="M 200.253906 339.226563 C 201.328125 344.46875 202.71875 349.808594 204.46875 355.261719 C 232.9375 346.507813 318.613281 319.855469 318.597656 315.941406 C 318.578125 312.195313 229.765625 329.511719 200.253906 339.226563 "/>
<path style=" stroke:none;fill-rule:nonzero;fill:rgb(100%,64.256287%,0%);fill-opacity:1;" d="M 215.605469 388.25 C 231.777344 392.21875 256.40625 398.910156 269.542969 405.714844 C 269.542969 405.714844 235.785156 376.96875 209.738281 370.738281 C 211.839844 376.914063 213.796875 382.738281 215.605469 388.25 "/>
<path style=" stroke:none;fill-rule:nonzero;fill:rgb(92.96875%,48.242188%,6.665039%);fill-opacity:1;" d="M 203.65625 347.335938 C 203.65625 347.335938 291.722656 320.203125 313.617188 317.160156 L 315.515625 318.085938 C 315.515625 318.085938 216.742188 347.597656 204.808594 356.289063 L 203.65625 347.335938 "/>
<path style=" stroke:none;fill-rule:nonzero;fill:rgb(92.96875%,48.242188%,6.665039%);fill-opacity:1;" d="M 279.546875 276.203125 C 279.546875 276.203125 239.132813 309.976563 199.144531 326.5625 L 200.253906 335.339844 C 200.253906 335.339844 237.242188 313.066406 248.644531 304.324219 C 256.933594 297.96875 279.546875 276.203125 279.546875 276.203125 "/>
<path style=" stroke:none;fill-rule:nonzero;fill:rgb(92.96875%,48.242188%,6.665039%);fill-opacity:1;" d="M 197.535156 305.773438 C 197.535156 305.773438 222.519531 286.921875 238.796875 262.097656 L 243.410156 257.75 C 243.410156 257.75 216.929688 303.429688 199.511719 315.273438 L 197.535156 305.773438 "/>
<path style=" stroke:none;fill-rule:nonzero;fill:rgb(92.96875%,48.242188%,6.665039%);fill-opacity:1;" d="M 207.449219 364.042969 C 207.449219 364.042969 275.554688 359.628906 302.496094 370.738281 C 302.496094 370.738281 229.921875 363.5 210.847656 370.738281 L 207.449219 364.042969 "/>
<path style=" stroke:none;fill-rule:nonzero;fill:rgb(92.96875%,48.242188%,6.665039%);fill-opacity:1;" d="M 213.015625 380.445313 C 213.015625 380.445313 249.6875 388.746094 267.585938 404.09375 C 267.585938 404.09375 231.21875 390.886719 215.605469 388.25 L 213.015625 380.445313 "/>
<path style=" stroke:none;fill-rule:nonzero;fill:rgb(100%,64.256287%,0%);fill-opacity:1;" d="M 115.660156 522.410156 L 115.585938 522 C 115.859375 522.097656 116.03125 522.1875 116.03125 522.1875 C 115.894531 522.246094 115.785156 522.335938 115.660156 522.410156 Z M 236.296875 172.636719 C 236.484375 172.609375 281.265625 166.128906 281.265625 162.820313 C 281.265625 157.644531 247.121094 152.460938 239.558594 148.042969 C 239.816406 139.148438 239.035156 130.480469 237.167969 122.257813 C 237.183594 122.257813 247.992188 113.722656 261.253906 103.035156 C 274.511719 92.351563 282.425781 87.464844 280.941406 83.992188 C 279.488281 80.632813 239.621094 96.84375 225.648438 94.789063 C 221.582031 88.632813 216.605469 83.058594 210.710938 78.234375 C 205.710938 66.976563 224.578125 9.863281 222.367188 9.117188 C 220.152344 8.386719 201.726563 36.027344 192.871094 48.566406 C 184.054688 61.066406 177.660156 62 177.632813 62.011719 C 176.339844 61.675781 175.035156 61.378906 173.714844 61.089844 C 170.132813 60.332031 166.675781 59.746094 163.339844 59.3125 C 150.390625 49.050781 145.328125 3.597656 143.859375 2.863281 C 142.378906 2.113281 141.273438 20.175781 139.070313 36.359375 C 136.855469 52.519531 131.507813 60.15625 131.496094 60.183594 C 126.070313 61.316406 121.121094 62.933594 116.605469 64.921875 C 104.789063 64.039063 80.828125 35.292969 80.09375 36.398438 C 79.363281 37.507813 86.316406 55.566406 90.78125 66.628906 C 95.246094 77.671875 90.84375 83.992188 90.84375 83.992188 C 62.953125 105.6875 73.179688 136.921875 47.292969 144.023438 C 28.96875 149.039063 14.488281 136.289063 11.902344 134.074219 C 9.328125 131.859375 0.484375 136.289063 3.429688 157.285156 C 4.152344 162.4375 5.445313 167.386719 7.050781 171.890625 C 11.988281 185.757813 19.8125 195.363281 22.601563 193.410156 C 23.398438 192.851563 24.878906 192.054688 26.867188 191.15625 C 26.890625 191.15625 26.917969 191.144531 26.941406 191.132813 C 34.144531 187.886719 47.851563 183.421875 59.085938 184.566406 C 60.167969 184.675781 61.285156 184.976563 62.429688 185.421875 C 76.414063 190.820313 95.222656 218.875 131.320313 219.210938 C 131.320313 219.210938 136.484375 222.902344 106.082031 250.546875 C 75.667969 278.183594 49.679688 300.300781 60.738281 347.847656 C 71.796875 395.390625 109.738281 411.597656 137.964844 435.929688 C 167.445313 461.367188 180.71875 485.6875 177.023438 513.339844 C 171.636719 553.808594 124.316406 557.9375 118.535156 536.964844 L 118.535156 536.949219 C 119.527344 537.324219 120.648438 537.574219 121.917969 537.660156 C 136.285156 538.644531 139.992188 519.972656 129.121094 509.648438 C 119.628906 500.652344 101.652344 502.46875 94.289063 519.425781 C 88.132813 533.578125 90.582031 560.4375 117.277344 572.566406 C 117.8125 572.800781 118.347656 573.050781 118.90625 573.273438 C 119.878906 573.683594 120.886719 574.070313 121.929688 574.441406 C 122.066406 574.492188 122.214844 574.542969 122.351563 574.59375 C 122.9375 574.792969 123.535156 574.992188 124.132813 575.179688 C 124.703125 575.351563 125.265625 575.523438 125.847656 575.699219 C 125.898438 575.714844 125.949219 575.726563 125.996094 575.738281 C 126.632813 575.910156 127.277344 576.085938 127.925781 576.246094 C 129.230469 576.582031 130.585938 576.882813 131.980469 577.144531 C 133.3125 577.402344 134.691406 577.640625 136.109375 577.839844 C 172.273438 582.964844 209.429688 555.808594 224.792969 521.960938 C 228.226563 514.410156 230.574219 506.535156 231.585938 498.601563 C 237.105469 455.097656 229.617188 428.367188 205.558594 358.53125 C 193.730469 324.199219 196.070313 294.132813 203.433594 266.515625 C 203.433594 266.515625 218.859375 262.152344 218.859375 260.769531 C 218.859375 259.390625 209.417969 247.210938 209.417969 247.210938 C 213.496094 235.46875 218.136719 224.121094 222.539063 213.015625 C 225.949219 212.257813 254.511719 216.609375 254.523438 213.5 C 254.523438 210.453125 230.003906 193.421875 230.003906 193.410156 C 231.769531 188.410156 233.398438 183.421875 234.792969 178.46875 C 235.339844 176.527344 235.839844 174.574219 236.296875 172.636719 "/>
<path style=" stroke:none;fill-rule:nonzero;fill:rgb(92.96875%,48.242188%,6.665039%);fill-opacity:1;" d="M 148.808594 217.328125 C 96.699219 224.292969 74.148438 187.214844 62.46875 185.421875 L 62.429688 185.421875 C 53.015625 184.007813 35.449219 187.785156 26.941406 191.132813 C 26.917969 191.144531 26.890625 191.15625 26.867188 191.15625 C 24.851563 191.96875 23.347656 192.738281 22.601563 193.410156 C 19.8125 195.363281 11.988281 185.757813 7.050781 171.890625 C 10.398438 175.160156 16.214844 178.492188 25.910156 177.027344 C 63.507813 171.34375 73.183594 184.394531 89.078125 171.34375 C 89.078125 171.34375 109.566406 200.6875 142.652344 193 C 175.742188 185.300781 188.453125 144.324219 192.871094 144.324219 C 197.296875 144.324219 200.902344 210.375 148.808594 217.328125 "/>
<path style=" stroke:none;fill-rule:nonzero;fill:rgb(92.96875%,48.242188%,6.665039%);fill-opacity:1;" d="M 81.75 39.898438 C 81.75 39.898438 102.128906 66.742188 105.246094 68.648438 C 108.566406 70.675781 119.160156 65.699219 119.160156 65.699219 C 119.160156 65.699219 101.011719 57.222656 93.777344 48.746094 C 86.542969 40.269531 81.75 39.898438 81.75 39.898438 "/>
<path style=" stroke:none;fill-rule:nonzero;fill:rgb(92.96875%,48.242188%,6.665039%);fill-opacity:1;" d="M 143.671875 6.335938 C 143.671875 6.335938 144.945313 57.070313 149.601563 59.71875 C 153.625 62.007813 161.425781 60.90625 166.15625 61.253906 C 153.441406 49.300781 144.226563 11.285156 143.671875 6.335938 "/>
<path style=" stroke:none;fill-rule:nonzero;fill:rgb(92.96875%,48.242188%,6.665039%);fill-opacity:1;" d="M 219.785156 11.1875 C 219.785156 11.1875 201.984375 71.351563 195.4375 69.863281 C 197.648438 75.578125 211.859375 80.628906 211.859375 80.628906 C 211.859375 80.628906 208.355469 72.519531 211.121094 59.988281 C 213.886719 47.457031 222.441406 13.253906 222.402344 11.1875 C 222.367188 9.117188 219.785156 11.1875 219.785156 11.1875 "/>
<path style=" stroke:none;fill-rule:nonzero;fill:rgb(92.96875%,48.242188%,6.665039%);fill-opacity:1;" d="M 279.714844 85.601563 C 279.714844 85.601563 238.003906 110.71875 231.113281 103.648438 C 229.207031 109.890625 235.515625 125.53125 236.371094 125.179688 C 237.222656 124.824219 280.828125 88.183594 281.265625 86.894531 C 281.703125 85.601563 279.714844 85.601563 279.714844 85.601563 "/>
<path style=" stroke:none;fill-rule:nonzero;fill:rgb(92.96875%,48.242188%,6.665039%);fill-opacity:1;" d="M 281.265625 164.015625 C 281.265625 164.015625 240.332031 166.691406 238.25 156.402344 C 235.449219 160.835938 234.894531 169.683594 234.15625 174.246094 C 244.292969 172.21875 281.265625 164.015625 281.265625 164.015625 "/>
<path style=" stroke:none;fill-rule:nonzero;fill:rgb(92.96875%,48.242188%,6.665039%);fill-opacity:1;" d="M 226.65625 201.398438 C 226.417969 207.433594 254.523438 213.5 254.523438 213.5 L 221.257813 213.5 C 221.257813 213.5 223.835938 201.699219 226.65625 201.398438 "/>
<path style=" stroke:none;fill-rule:nonzero;fill:rgb(92.96875%,48.242188%,6.665039%);fill-opacity:1;" d="M 203.433594 266.515625 C 203.433594 266.515625 218.859375 262.152344 218.859375 260.769531 C 218.859375 259.390625 209.417969 247.210938 209.417969 247.210938 C 212.875 237.246094 216.742188 227.582031 220.511719 218.101563 C 220.601563 217.703125 220.738281 217.296875 220.898438 216.871094 C 233.308594 183.472656 244.363281 157.9375 235.726563 117.300781 C 228.171875 81.765625 193.566406 68.886719 192.324219 68.648438 C 209.859375 86.734375 223.285156 127.730469 213.882813 170.621094 C 204.488281 213.5 182.558594 230.542969 173.34375 276.207031 C 164.125 321.859375 173.527344 347.894531 192.324219 399.28125 C 211.121094 450.683594 221.234375 493.152344 209.738281 522 C 208.296875 525.632813 206.382813 529.324219 204.054688 532.996094 C 190.707031 554.019531 163.6875 574.183594 131.980469 577.144531 C 133.3125 577.402344 134.691406 577.640625 136.109375 577.839844 C 173.085938 583.078125 208.808594 555.597656 224.027344 523.53125 C 227.765625 515.65625 230.480469 507.269531 231.585938 498.601563 C 237.105469 455.097656 229.617188 428.367188 205.558594 358.53125 C 193.730469 324.199219 196.070313 294.132813 203.433594 266.515625 "/>
<path style=" stroke:none;fill-rule:nonzero;fill:rgb(100%,82.03125%,19.993591%);fill-opacity:1;" d="M 128.5625 226.921875 C 128.5625 226.921875 116.871094 240.359375 102.347656 253.929688 C 87.820313 267.5 56.179688 291.265625 58.183594 324.53125 C 60.191406 357.796875 68.203125 379.800781 95.203125 401.65625 C 122.207031 423.515625 162.027344 448.085938 174.503906 484.765625 L 177.632813 483.113281 C 177.632813 483.113281 175.820313 463.367188 159.839844 436.566406 C 143.855469 409.765625 114.921875 362.3125 120.542969 323.566406 C 126.164063 284.820313 145.726563 257.558594 153.449219 243.546875 C 161.175781 229.53125 169.835938 209.90625 169.835938 209.90625 L 164.132813 213.015625 L 131.324219 219.214844 L 128.5625 226.921875 "/>
<path style=" stroke:none;fill-rule:nonzero;fill:rgb(92.96875%,48.242188%,6.665039%);fill-opacity:1;" d="M 118.535156 536.949219 C 110.351563 536.238281 112.738281 526.886719 112.738281 526.886719 C 107.050781 534.902344 109.394531 555.355469 140.722656 550.195313 C 125.511719 550.566406 118.535156 536.949219 118.535156 536.949219 "/>
<path style=" stroke:none;fill-rule:nonzero;fill:rgb(100%,74.021912%,14.109802%);fill-opacity:1;" d="M 93.777344 523.519531 C 93.777344 523.519531 102.140625 508.945313 117.890625 512.460938 C 133.636719 515.976563 134.050781 528.316406 129.738281 535.800781 C 129.738281 535.800781 137.796875 528.21875 134.585938 518.265625 C 131.371094 508.316406 122.625 501.75 114.558594 503.097656 C 106.492188 504.445313 92.117188 513.566406 93.777344 523.519531 "/>
<path style=" stroke:none;fill-rule:nonzero;fill:rgb(100%,74.021912%,14.109802%);fill-opacity:1;" d="M 151.964844 85.601563 C 137.867188 70.796875 108.011719 72.257813 87.28125 89.519531 C 74.015625 100.5625 69.097656 120.734375 62.414063 133.707031 C 58.074219 138.976563 50.34375 145.683594 39.332031 145.175781 C 21.363281 144.347656 13.824219 131.433594 10.175781 133.570313 C 6.527344 135.707031 -2.191406 146.695313 3.429688 157.292969 C 3.429688 157.292969 21.214844 165.394531 46.921875 160.835938 C 47.996094 160.644531 48.996094 160.417969 49.96875 160.171875 C 55.972656 158.925781 71.058594 154.578125 82.996094 154.066406 C 102.347656 153.238281 113.546875 185.300781 148.945313 168.164063 C 173.25 156.402344 180.011719 115.058594 151.964844 85.601563 "/>
<path style=" stroke:none;fill-rule:nonzero;fill:rgb(92.96875%,48.242188%,6.665039%);fill-opacity:1;" d="M 123.417969 361.910156 C 123.417969 361.910156 123.03125 367.972656 137.222656 367.769531 C 151.410156 367.566406 173.859375 362.214844 173.617188 341.742188 C 173.617188 341.742188 185.089844 351.4375 185.390625 350.933594 C 185.691406 350.425781 186.46875 359.335938 186.46875 359.335938 C 186.46875 359.335938 129.066406 380.71875 128.585938 379.402344 C 128.109375 378.085938 123.007813 362.71875 123.417969 361.910156 "/>
<path style=" stroke:none;fill-rule:nonzero;fill:rgb(92.96875%,48.242188%,6.665039%);fill-opacity:1;" d="M 150.675781 419.71875 C 150.675781 419.71875 155.097656 425.246094 170.761719 419.71875 C 186.429688 414.191406 191.839844 407.246094 191.621094 397.359375 C 191.402344 387.46875 201.90625 405.714844 201.90625 405.714844 L 200.253906 411.058594 L 158.339844 432.0625 L 150.675781 419.71875 "/>
<path style=" stroke:none;fill-rule:nonzero;fill:rgb(92.96875%,48.242188%,6.665039%);fill-opacity:1;" d="M 171.691406 460.90625 C 171.691406 460.90625 174.953125 465.421875 185.390625 463.394531 C 195.824219 461.367188 207.183594 453.671875 205.742188 440.105469 L 213.886719 441.648438 L 219.757813 450.957031 L 175.320313 471.96875 L 171.691406 460.90625 "/>
<path style=" stroke:none;fill-rule:nonzero;fill:rgb(92.96875%,48.242188%,6.665039%);fill-opacity:1;" d="M 177.722656 491.039063 C 177.722656 491.039063 178.6875 498.964844 190.113281 501.542969 C 201.539063 504.121094 213.289063 497.695313 214.511719 488.839844 L 221.257813 494.769531 L 221.257813 504.308594 C 221.257813 504.308594 190.011719 506.402344 185.390625 505.433594 C 177.386719 503.753906 177.386719 498.847656 177.386719 498.847656 L 177.722656 491.039063 "/>
<path style=" stroke:none;fill-rule:nonzero;fill:rgb(92.96875%,48.242188%,6.665039%);fill-opacity:1;" d="M 154.59375 547.597656 L 160.027344 542.625 C 160.027344 542.625 160.074219 561.683594 173.34375 562.941406 L 174.503906 566.089844 L 161.917969 571.324219 C 161.917969 571.324219 153.351563 560.667969 154.59375 547.597656 "/>
<path style=" stroke:none;fill-rule:nonzero;fill:rgb(92.96875%,48.242188%,6.665039%);fill-opacity:1;" d="M 177.632813 519.359375 C 177.632813 519.359375 180.621094 542.019531 201.675781 536.523438 L 204.488281 538.953125 L 195.726563 549.789063 C 195.726563 549.789063 174.765625 532.875 174.503906 531.398438 C 174.242188 529.917969 174.503906 523.6875 174.503906 523.6875 L 177.632813 519.359375 "/>
<path style=" stroke:none;fill-rule:nonzero;fill:rgb(92.96875%,48.242188%,6.665039%);fill-opacity:1;" d="M 130.082031 562.019531 C 130.082031 562.019531 129.554688 570.019531 141.183594 571.324219 C 152.816406 572.632813 158.359375 563.808594 157.789063 562.019531 C 157.21875 560.230469 162.886719 574.9375 162.886719 574.9375 C 162.886719 574.9375 129.726563 580.515625 128.890625 576.480469 C 128.054688 572.445313 130.082031 562.019531 130.082031 562.019531 "/>
<path style=" stroke:none;fill-rule:nonzero;fill:rgb(92.96875%,48.242188%,6.665039%);fill-opacity:1;" d="M 106.105469 554.460938 C 106.105469 554.460938 109.105469 562.636719 117.890625 566.089844 C 126.671875 569.546875 130.082031 562.019531 130.082031 562.019531 L 127.777344 575.351563 C 127.777344 575.351563 106.910156 566.585938 104.609375 564.273438 C 102.308594 561.960938 106.105469 554.460938 106.105469 554.460938 "/>
<path style=" stroke:none;fill-rule:nonzero;fill:rgb(92.96875%,48.242188%,6.665039%);fill-opacity:1;" d="M 92.117188 531.949219 C 92.117188 531.949219 97.789063 551.4375 103.867188 555.171875 L 100.433594 559.796875 C 100.433594 559.796875 89.246094 542.160156 92.117188 531.949219 "/>
<path style=" stroke:none;fill-rule:nonzero;fill:rgb(94.921875%,70.896912%,5.883789%);fill-opacity:1;" d="M 72.710938 284.488281 C 72.246094 288.269531 71.015625 293.25 75.300781 295.878906 C 82.59375 300.34375 107.445313 305.925781 113.816406 302.511719 C 118.976563 299.746094 130.378906 283.226563 130.378906 283.226563 L 121.542969 314.574219 C 121.542969 314.574219 62.964844 302.410156 63.144531 301.078125 C 63.324219 299.746094 70.714844 287.554688 72.710938 284.488281 "/>
<path style=" stroke:none;fill-rule:nonzero;fill:rgb(94.921875%,70.896912%,5.883789%);fill-opacity:1;" d="M 69.589844 368.441406 C 69.589844 368.441406 74.558594 376.15625 87.097656 375.121094 C 100.152344 374.039063 119.15625 371.691406 122.613281 358.019531 L 128.285156 378.582031 C 128.285156 378.582031 81.058594 385.015625 78.710938 384.605469 C 76.359375 384.195313 69.171875 370.652344 69.589844 368.441406 "/>
<path style=" stroke:none;fill-rule:nonzero;fill:rgb(94.921875%,70.896912%,5.883789%);fill-opacity:1;" d="M 110.648438 413.664063 C 110.648438 413.664063 116.859375 419.027344 125.566406 415.570313 C 134.273438 412.117188 138.191406 403.1875 139.382813 402.589844 C 141.148438 401.703125 151.285156 422.613281 157.152344 432.0625 C 165.445313 445.402344 173.664063 475.28125 173.664063 475.28125 L 141.636719 439.179688 L 111.425781 415.535156 L 110.648438 413.664063 "/>
<path style=" stroke:none;fill-rule:nonzero;fill:rgb(100%,100%,39.988708%);fill-opacity:1;" d="M 71.804688 285.730469 C 71.804688 285.730469 75.238281 293.257813 82.441406 284.957031 C 98.929688 265.964844 138.882813 260.125 139.25 264.730469 C 139.617188 269.339844 146.171875 253.433594 146.171875 253.433594 L 115.292969 242.984375 C 115.292969 242.984375 76.777344 276.203125 71.804688 285.730469 "/>
<path style=" stroke:none;fill-rule:nonzero;fill:rgb(100%,74.021912%,14.109802%);fill-opacity:1;" d="M 122.523438 350.195313 C 122.742188 350.703125 127.089844 328.757813 131.980469 324.902344 C 137.589844 320.480469 166.742188 313.597656 166.742188 313.597656 C 166.742188 313.597656 122.253906 312.617188 121.898438 313.597656 C 121.542969 314.574219 119.070313 342.039063 122.523438 350.195313 "/>
<path style=" stroke:none;fill-rule:nonzero;fill:rgb(100%,74.021912%,14.109802%);fill-opacity:1;" d="M 133.59375 283.226563 C 133.59375 283.226563 145.582031 266.367188 150.675781 263.808594 C 158.820313 259.71875 173.664063 258.972656 173.664063 258.972656 L 148.945313 254.113281 C 148.945313 254.113281 134.460938 276.40625 133.59375 283.226563 "/>
<path style=" stroke:none;fill-rule:nonzero;fill:rgb(100%,74.021912%,14.109802%);fill-opacity:1;" d="M 174.503906 366.273438 C 174.503906 367.378906 144.667969 374.59375 142.050781 384.625 C 139.433594 394.65625 141.363281 404.09375 141.363281 404.09375 C 141.363281 404.09375 127.3125 381.984375 129.027344 380.445313 C 130.742188 378.90625 174.503906 362.222656 174.503906 366.273438 "/>
<path style=" stroke:none;fill-rule:nonzero;fill:rgb(100%,74.021912%,14.109802%);fill-opacity:1;" d="M 193.429688 416.703125 C 193.558594 417.722656 170.945313 430.757813 169.472656 434.453125 C 168 438.148438 170.128906 458.515625 170.128906 458.515625 L 157.152344 432.0625 C 157.152344 432.0625 193.167969 414.605469 193.429688 416.703125 "/>
<path style=" stroke:none;fill-rule:nonzero;fill:rgb(100%,74.021912%,14.109802%);fill-opacity:1;" d="M 197.300781 464.140625 L 176.292969 473.191406 C 176.292969 473.191406 178.359375 490.917969 178.617188 493.652344 C 178.617188 493.652344 180.683594 477.964844 185.390625 474.558594 C 193.429688 468.738281 205.375 461 205.375 461 L 197.300781 464.140625 "/>
<path style=" stroke:none;fill-rule:nonzero;fill:rgb(100%,74.021912%,14.109802%);fill-opacity:1;" d="M 177.722656 517.574219 C 177.722656 517.574219 179.609375 512.417969 183.847656 511.492188 C 188.085938 510.574219 200.15625 514.074219 208.496094 508.730469 L 177.722656 504.121094 L 177.722656 517.574219 "/>
<path style=" stroke:none;fill-rule:nonzero;fill:rgb(100%,74.021912%,14.109802%);fill-opacity:1;" d="M 173.34375 529.738281 C 173.34375 529.738281 186.007813 542.289063 188.246094 545.871094 C 188.246094 545.871094 170.589844 538.953125 162.886719 542.625 C 157.386719 545.246094 173.34375 529.738281 173.34375 529.738281 "/>
<path style=" stroke:none;fill-rule:nonzero;fill:rgb(100%,74.021912%,14.109802%);fill-opacity:1;" d="M 131.246094 558.304688 C 131.246094 558.304688 133.734375 554.113281 140.453125 554.460938 C 147.175781 554.800781 152.695313 554.101563 156.015625 559.796875 L 153.113281 546.421875 L 132.90625 551.019531 L 131.246094 558.304688 "/>
<path style=" stroke:none;fill-rule:nonzero;fill:rgb(100%,100%,39.988708%);fill-opacity:1;" d="M 93.363281 400.734375 C 93.363281 400.734375 105.15625 384.605469 133.59375 391.289063 L 128.585938 379.402344 L 79.648438 384.605469 C 79.648438 384.605469 89.273438 398.015625 93.363281 400.734375 "/>
<path style=" stroke:none;fill-rule:nonzero;fill:rgb(100%,100%,39.988708%);fill-opacity:1;" d="M 63.144531 356.472656 C 63.144531 356.472656 64.613281 338.722656 75.117188 327.941406 C 84.425781 318.386719 116.027344 319.925781 119.621094 331.261719 L 121.542969 314.574219 C 121.542969 314.574219 69.402344 303.476563 67.007813 302.433594 C 64.613281 301.386719 61.085938 304.324219 61.085938 304.324219 C 61.085938 304.324219 55.214844 339.828125 63.144531 356.472656 "/>
<path style=" stroke:none;fill-rule:nonzero;fill:rgb(92.96875%,48.242188%,6.665039%);fill-opacity:1;" d="M 155.28125 242.984375 C 155.28125 242.984375 154.664063 249.621094 161.425781 250.910156 C 168.183594 252.199219 178.375 251.464844 183.691406 242.984375 L 189.570313 257.507813 C 189.570313 257.507813 149.601563 255.5 147.464844 253.757813 C 145.332031 252.015625 155.28125 242.984375 155.28125 242.984375 "/>
<path style=" stroke:none;fill-rule:nonzero;fill:rgb(94.921875%,70.896912%,5.883789%);fill-opacity:1;" d="M 129.574219 228.152344 C 129.160156 227.875 141.875 226.628906 146.300781 231.882813 C 150.722656 237.132813 144.714844 245.566406 142.050781 245.980469 C 139.386719 246.394531 123.53125 239.566406 124.046875 235.476563 L 117.890625 240.3125 C 117.890625 240.3125 135.234375 250.527344 142.050781 252.308594 C 148.871094 254.09375 157.632813 238.238281 157.632813 238.238281 L 168.367188 215.574219 L 169.039063 208.441406 L 133.140625 219.210938 L 129.574219 228.152344 "/>
<path style=" stroke:none;fill-rule:nonzero;fill:rgb(92.96875%,48.242188%,6.665039%);fill-opacity:1;" d="M 177.632813 287.585938 C 177.632813 287.585938 171.726563 292.988281 170.449219 295.292969 C 169.796875 303.753906 167.167969 307.484375 147.679688 307.761719 C 127.691406 308.046875 126.351563 301.386719 126.351563 301.386719 L 121.542969 314.574219 C 121.542969 314.574219 165.753906 313.917969 172.601563 312.808594 C 179.453125 311.699219 177.632813 287.585938 177.632813 287.585938 "/>
<path style=" stroke:none;fill-rule:nonzero;fill:rgb(63.867188%,26.660156%,0%);fill-opacity:1;" d="M 128.820313 220.25 Z M 129.613281 221.472656 C 129.613281 221.472656 129.617188 221.472656 129.617188 221.472656 C 129.617188 221.472656 129.613281 221.472656 129.613281 221.472656 Z M 129.621094 221.476563 C 129.621094 221.476563 129.621094 221.480469 129.625 221.480469 C 129.621094 221.480469 129.621094 221.476563 129.621094 221.476563 Z M 129.625 221.480469 C 129.628906 221.484375 129.628906 221.484375 129.632813 221.484375 C 129.628906 221.484375 129.628906 221.484375 129.625 221.480469 Z M 129.632813 221.484375 C 129.636719 221.488281 129.636719 221.488281 129.640625 221.492188 C 129.636719 221.488281 129.636719 221.488281 129.632813 221.484375 Z M 129.640625 221.492188 C 129.644531 221.496094 129.648438 221.5 129.65625 221.503906 C 129.648438 221.5 129.644531 221.496094 129.640625 221.492188 Z M 129.65625 221.503906 C 129.660156 221.507813 129.664063 221.507813 129.667969 221.511719 C 129.664063 221.507813 129.660156 221.507813 129.65625 221.503906 Z M 129.671875 221.515625 C 129.671875 221.515625 129.675781 221.515625 129.675781 221.519531 C 129.675781 221.515625 129.671875 221.515625 129.671875 221.515625 Z M 138.902344 552.21875 C 127.375 552.21875 118.246094 546.582031 115.800781 537.71875 C 115.386719 536.210938 116.269531 534.648438 117.78125 534.234375 C 119.285156 533.820313 120.851563 534.703125 121.265625 536.210938 C 123.179688 543.136719 130.921875 547.160156 141 546.476563 C 155.445313 545.484375 171.316406 534.738281 174.21875 512.960938 C 177.644531 487.257813 165.535156 463.464844 136.109375 438.082031 C 129.691406 432.546875 122.886719 427.527344 115.683594 422.214844 C 91.617188 404.464844 66.730469 386.105469 57.980469 348.488281 C 46.824219 300.507813 72.347656 277.335938 101.902344 250.503906 L 104.171875 248.441406 C 126.210938 228.40625 128.550781 221.769531 128.792969 220.488281 C 128.335938 219.578125 128.382813 218.449219 129.019531 217.566406 C 129.929688 216.289063 131.699219 215.996094 132.972656 216.90625 C 133.390625 217.203125 134.371094 218.097656 134.480469 219.925781 C 134.601563 221.949219 134.960938 228.113281 107.984375 252.640625 L 105.714844 254.699219 C 76.316406 281.386719 53.097656 302.46875 63.503906 347.203125 C 71.777344 382.785156 95.808594 400.511719 119.050781 417.652344 C 126.023438 422.796875 133.230469 428.113281 139.8125 433.789063 C 170.824219 460.535156 183.542969 485.933594 179.839844 513.710938 C 176.511719 538.660156 158.128906 550.984375 141.390625 552.132813 C 140.550781 552.1875 139.71875 552.21875 138.902344 552.21875 "/>
<path style=" stroke:none;fill-rule:nonzero;fill:rgb(63.867188%,26.660156%,0%);fill-opacity:1;" d="M 22.597656 196.246094 C 21.703125 196.246094 20.824219 195.824219 20.273438 195.035156 C 19.375 193.753906 19.6875 191.988281 20.96875 191.089844 C 24.460938 188.648438 39.9375 181.558594 56.320313 181.558594 C 59.269531 181.558594 61.273438 181.851563 63.398438 182.164063 C 66.207031 182.574219 69.382813 183.042969 75.878906 182.882813 C 86.363281 182.632813 91.71875 177.40625 91.773438 177.355469 C 92.878906 176.25 94.675781 176.253906 95.78125 177.359375 C 96.886719 178.464844 96.886719 180.257813 95.78125 181.363281 C 95.078125 182.066406 88.542969 188.25 76.015625 188.550781 C 69.046875 188.71875 65.609375 188.21875 62.578125 187.773438 C 60.582031 187.480469 58.855469 187.230469 56.320313 187.230469 C 42.304688 187.230469 27.679688 193.3125 24.21875 195.734375 C 23.726563 196.082031 23.160156 196.246094 22.597656 196.246094 "/>
<path style=" stroke:none;fill-rule:nonzero;fill:rgb(63.867188%,26.660156%,0%);fill-opacity:1;" d="M 102.347656 184.546875 C 102.210938 184.546875 102.070313 184.535156 101.929688 184.515625 C 88.984375 182.597656 86.421875 172.433594 86.320313 172 C 85.957031 170.476563 86.898438 168.949219 88.421875 168.585938 C 89.9375 168.21875 91.457031 169.15625 91.828125 170.664063 C 91.917969 171.003906 93.761719 177.570313 102.761719 178.90625 C 104.308594 179.136719 105.378906 180.578125 105.148438 182.125 C 104.941406 183.53125 103.730469 184.546875 102.347656 184.546875 "/>
<path style=" stroke:none;fill-rule:nonzero;fill:rgb(63.867188%,26.660156%,0%);fill-opacity:1;" d="M 132.113281 222.050781 C 131.84375 222.050781 131.570313 222.050781 131.296875 222.046875 C 105.429688 221.804688 88.113281 207.882813 75.46875 197.71875 C 68.875 192.414063 63.179688 187.835938 58.792969 187.386719 C 57.988281 187.304688 57.132813 187.25 56.246094 187.226563 C 54.683594 187.1875 53.445313 185.886719 53.484375 184.320313 C 53.523438 182.78125 54.785156 181.558594 56.316406 181.558594 C 56.339844 181.558594 56.367188 181.558594 56.390625 181.558594 C 57.421875 181.585938 58.425781 181.648438 59.375 181.746094 C 65.425781 182.367188 71.425781 187.191406 79.023438 193.300781 C 91.6875 203.480469 107.449219 216.152344 131.351563 216.378906 C 131.601563 216.378906 131.859375 216.382813 132.105469 216.382813 C 168.289063 216.382813 181.699219 191.683594 182.257813 190.625 C 182.984375 189.238281 184.695313 188.703125 186.082031 189.429688 C 187.46875 190.152344 188.007813 191.859375 187.285156 193.246094 C 186.667969 194.429688 171.84375 222.050781 132.113281 222.050781 "/>
<path style=" stroke:none;fill-rule:nonzero;fill:rgb(63.867188%,26.660156%,0%);fill-opacity:1;" d="M 230 193.410156 L 230.011719 193.410156 Z M 251.84375 214.273438 Z M 145.042969 581.296875 C 141.910156 581.296875 138.796875 581.082031 135.71875 580.644531 C 111.03125 577.148438 99.542969 565.132813 94.246094 555.667969 C 86.433594 541.695313 87.984375 526.800781 91.683594 518.289063 C 95.464844 509.59375 102.378906 503.640625 110.65625 501.957031 C 118.121094 500.441406 125.746094 502.546875 131.066406 507.597656 C 137.800781 513.988281 140.121094 523.875 136.714844 531.636719 C 134.082031 537.640625 128.488281 540.960938 121.730469 540.492188 C 114.296875 539.988281 110.773438 535.117188 109.953125 530.730469 C 109.0625 525.941406 111.066406 521.371094 114.828125 519.613281 C 116.246094 518.949219 117.933594 519.566406 118.597656 520.984375 C 119.257813 522.402344 118.644531 524.089844 117.226563 524.75 C 115.875 525.382813 115.128906 527.550781 115.527344 529.691406 C 115.796875 531.121094 116.972656 534.484375 122.113281 534.835938 C 128.03125 535.242188 130.550781 531.578125 131.523438 529.359375 C 133.605469 524.617188 132.773438 517.035156 127.160156 511.707031 C 123.183594 507.933594 117.4375 506.363281 111.785156 507.511719 C 105.253906 508.84375 99.960938 513.472656 96.882813 520.550781 C 93.445313 528.449219 92.828125 541.519531 99.195313 552.898438 C 105.890625 564.867188 118.792969 572.519531 136.515625 575.03125 C 154.820313 577.625 174.546875 571.695313 192.054688 558.335938 C 212.214844 542.953125 225.9375 520.484375 228.765625 498.234375 C 234.21875 455.359375 226.90625 429.207031 202.878906 359.457031 C 192.429688 329.128906 191.734375 299.363281 200.6875 265.78125 C 200.953125 264.785156 201.730469 264.035156 202.691406 263.777344 C 207.183594 262.511719 212.378906 260.84375 215.105469 259.746094 C 213.433594 257.230469 210.121094 252.746094 207.171875 248.941406 C 206.585938 248.1875 206.421875 247.179688 206.734375 246.273438 C 210.179688 236.378906 214.03125 226.71875 217.757813 217.378906 C 218.476563 215.570313 219.199219 213.765625 219.910156 211.96875 C 220.257813 211.097656 221.011719 210.453125 221.929688 210.25 C 223.46875 209.902344 226.503906 210.128906 234.144531 210.808594 C 238.390625 211.183594 245.296875 211.796875 249.511719 211.808594 C 245.628906 208.304688 237.515625 202.105469 228.398438 195.75 C 228.332031 195.703125 228.246094 195.640625 228.183594 195.589844 C 227.273438 194.828125 226.933594 193.585938 227.328125 192.464844 C 229.230469 187.089844 230.78125 182.261719 232.066406 177.695313 C 232.601563 175.800781 233.09375 173.882813 233.535156 171.992188 C 233.800781 170.867188 234.722656 170.015625 235.867188 169.839844 C 254.242188 167.152344 270.058594 164.152344 276.414063 162.234375 C 272.148438 160.351563 263.171875 158.046875 257.316406 156.542969 C 248.863281 154.371094 241.5625 152.5 238.132813 150.492188 C 237.234375 149.96875 236.699219 148.996094 236.730469 147.960938 C 236.984375 139.246094 236.203125 130.8125 234.410156 122.886719 C 234.195313 121.9375 234.480469 120.945313 235.171875 120.257813 C 235.171875 120.257813 235.316406 120.117188 235.621094 119.875 C 239.128906 117.101563 248.46875 109.691406 259.472656 100.828125 C 262.347656 98.507813 264.980469 96.457031 267.300781 94.648438 C 271.039063 91.738281 274.867188 88.753906 276.871094 86.722656 C 273.402344 87.4375 267.71875 89.066406 262.882813 90.449219 C 249.179688 94.378906 233.648438 98.824219 225.230469 97.589844 C 224.433594 97.472656 223.726563 97.019531 223.28125 96.347656 C 219.304688 90.328125 214.46875 84.972656 208.914063 80.425781 C 208.570313 80.144531 208.300781 79.785156 208.117188 79.382813 C 204.769531 71.847656 209.703125 50.753906 215.996094 26.015625 C 216.695313 23.273438 217.429688 20.382813 218.058594 17.804688 C 213.210938 24.199219 206.324219 34.152344 201.570313 41.027344 C 199.195313 44.464844 196.996094 47.644531 195.191406 50.195313 C 185.546875 63.863281 178.238281 64.792969 177.933594 64.824219 C 177.597656 64.859375 177.261719 64.835938 176.933594 64.753906 C 175.683594 64.4375 174.398438 64.136719 173.121094 63.863281 C 169.6875 63.132813 166.273438 62.546875 162.976563 62.121094 C 162.464844 62.054688 161.980469 61.851563 161.578125 61.53125 C 152.402344 54.265625 147.199219 32.371094 144.144531 17.285156 C 144.054688 18.109375 143.964844 18.9375 143.875 19.75 C 143.304688 25.023438 142.660156 31 141.871094 36.75 C 139.527344 53.910156 133.714844 61.941406 133.65625 62.011719 C 133.246094 62.492188 132.691406 62.824219 132.074219 62.953125 C 127.078125 63.996094 122.261719 65.53125 117.746094 67.515625 C 117.324219 67.699219 116.851563 67.777344 116.398438 67.746094 C 108.183594 67.136719 96.417969 56.292969 85.6875 45.539063 C 87.589844 50.816406 90.316406 57.902344 93.410156 65.558594 C 98.398438 77.898438 93.386719 85.308594 93.167969 85.617188 C 93.007813 85.851563 92.808594 86.0625 92.585938 86.234375 C 79.816406 96.164063 75.378906 108.367188 71.460938 119.136719 C 67.054688 131.246094 62.894531 142.6875 48.039063 146.757813 C 35.496094 150.195313 22.089844 146.519531 10.273438 136.402344 C 10.015625 136.457031 9.472656 136.6875 8.816406 137.394531 C 7.734375 138.558594 4.34375 143.40625 6.234375 156.898438 C 8.769531 174.949219 18.261719 188.976563 21.570313 190.699219 C 26.605469 187.613281 44.757813 180.253906 59.371094 181.746094 C 65.425781 182.367188 71.425781 187.191406 79.023438 193.300781 C 91.6875 203.480469 107.449219 216.152344 131.351563 216.378906 C 131.601563 216.378906 131.859375 216.382813 132.105469 216.382813 C 168.289063 216.382813 181.699219 191.683594 182.257813 190.625 C 182.984375 189.238281 184.695313 188.703125 186.082031 189.429688 C 187.46875 190.152344 188.007813 191.859375 187.285156 193.246094 C 186.664063 194.4375 171.640625 222.417969 131.296875 222.046875 C 105.429688 221.804688 88.113281 207.882813 75.46875 197.71875 C 68.875 192.414063 63.179688 187.835938 58.792969 187.386719 C 45.167969 185.984375 27.257813 193.605469 24.222656 195.734375 C 23.464844 196.261719 21.859375 197 19.582031 196.011719 C 12.894531 193.101563 3.152344 175.726563 0.621094 157.683594 C -2.101563 138.269531 4.878906 132.824219 7.085938 131.617188 C 9.460938 130.316406 12.015625 130.433594 13.75 131.917969 L 13.878906 132.03125 C 24.242188 140.933594 35.84375 144.21875 46.539063 141.289063 C 58.570313 137.992188 61.90625 128.816406 66.132813 117.195313 C 70.269531 105.824219 74.953125 92.953125 88.683594 82.089844 C 89.332031 80.871094 91.464844 75.875 88.152344 67.683594 C 75.953125 37.496094 76.820313 36.199219 77.734375 34.824219 C 78.207031 34.117188 79.027344 33.628906 79.875 33.546875 C 81.625 33.367188 82.320313 34.082031 87.753906 39.574219 C 94.609375 46.507813 108.667969 60.722656 116.183594 62.011719 C 120.484375 60.179688 125.023438 58.71875 129.710938 57.664063 C 131.058594 55.308594 134.589844 48.195313 136.257813 35.984375 C 137.03125 30.3125 137.671875 24.378906 138.238281 19.140625 C 139.925781 3.546875 140.261719 1.496094 142.316406 0.371094 C 143.1875 -0.101563 144.238281 -0.121094 145.125 0.320313 C 146.753906 1.136719 146.925781 2.019531 148.574219 10.464844 C 151.03125 23.0625 156.089844 48.980469 164.535156 56.609375 C 167.722656 57.042969 171.003906 57.617188 174.304688 58.320313 C 175.402344 58.554688 176.507813 58.808594 177.597656 59.074219 C 179.058594 58.550781 184.023438 56.191406 190.5625 46.925781 C 192.355469 44.386719 194.542969 41.222656 196.910156 37.800781 C 218.648438 6.371094 220.195313 5.414063 223.261719 6.433594 C 226.210938 7.417969 225.484375 10.722656 224.5625 14.902344 C 223.867188 18.070313 222.765625 22.398438 221.492188 27.410156 C 217.742188 42.144531 210.855469 69.234375 213.09375 76.523438 C 218.5 81.039063 223.257813 86.273438 227.253906 92.101563 C 234.945313 92.578125 250.09375 88.21875 261.320313 85 C 277.144531 80.46875 281.921875 79.097656 283.542969 82.882813 C 285.566406 87.605469 280.628906 91.453125 270.785156 99.121094 C 268.480469 100.917969 265.871094 102.953125 263.027344 105.242188 C 253.074219 113.261719 244.476563 120.09375 240.320313 123.386719 C 241.832031 130.695313 242.542969 138.386719 242.433594 146.300781 C 245.890625 147.757813 252.402344 149.425781 258.726563 151.050781 C 277.140625 155.777344 284.101563 158.019531 284.101563 162.820313 C 284.101563 165.453125 284.105469 168.4375 238.601563 175.167969 C 238.265625 176.523438 237.902344 177.882813 237.523438 179.234375 C 236.367188 183.332031 235.007813 187.632813 233.386719 192.320313 C 257.371094 209.164063 257.359375 211.980469 257.355469 213.507813 C 257.355469 214.453125 256.957031 215.335938 256.238281 215.992188 C 254.113281 217.929688 248.996094 217.816406 233.644531 216.453125 C 230.425781 216.167969 226.605469 215.828125 224.503906 215.765625 C 224.011719 217 223.515625 218.238281 223.023438 219.480469 C 219.503906 228.304688 215.867188 237.410156 212.597656 246.691406 C 221.699219 258.507813 221.695313 259.808594 221.695313 260.769531 C 221.695313 263.304688 219.519531 264.402344 212.027344 266.855469 C 211.496094 267.027344 208.144531 268.121094 205.757813 268.800781 C 197.539063 300.605469 198.335938 328.867188 208.238281 357.609375 C 232.59375 428.304688 239.996094 454.863281 234.390625 498.949219 C 231.375 522.675781 216.835938 546.558594 195.492188 562.84375 C 179.679688 574.910156 162.078125 581.296875 145.042969 581.296875 "/>
<path style=" stroke:none;fill-rule:nonzero;fill:rgb(63.867188%,26.660156%,0%);fill-opacity:1;" d="M 216.597656 391.289063 L 224.761719 392.902344 L 219.15625 399.285156 Z M 216.597656 391.289063 "/>
<path style=" stroke:none;fill-rule:nonzero;fill:rgb(63.867188%,26.660156%,0%);fill-opacity:1;" d="M 219.15625 402.121094 C 218.964844 402.121094 218.769531 402.101563 218.578125 402.0625 C 217.578125 401.851563 216.769531 401.121094 216.457031 400.152344 L 213.898438 392.152344 C 213.59375 391.199219 213.816406 390.152344 214.484375 389.402344 C 215.148438 388.65625 216.171875 388.316406 217.148438 388.507813 L 225.308594 390.121094 C 226.304688 390.320313 227.117188 391.03125 227.441406 391.992188 C 227.769531 392.953125 227.558594 394.011719 226.890625 394.773438 L 221.285156 401.15625 C 220.742188 401.777344 219.964844 402.121094 219.15625 402.121094 "/>
<path style=" stroke:none;fill-rule:nonzero;fill:rgb(63.867188%,26.660156%,0%);fill-opacity:1;" d="M 230.167969 434.453125 L 237.796875 436.996094 L 232.269531 443.90625 Z M 230.167969 434.453125 "/>
<path style=" stroke:none;fill-rule:nonzero;fill:rgb(63.867188%,26.660156%,0%);fill-opacity:1;" d="M 232.269531 446.742188 C 232.058594 446.742188 231.84375 446.71875 231.628906 446.667969 C 230.566406 446.421875 229.738281 445.585938 229.503906 444.523438 L 227.402344 435.066406 C 227.179688 434.070313 227.511719 433.03125 228.269531 432.347656 C 229.027344 431.660156 230.097656 431.441406 231.066406 431.761719 L 238.695313 434.304688 C 239.574219 434.597656 240.253906 435.304688 240.515625 436.191406 C 240.777344 437.082031 240.589844 438.042969 240.011719 438.765625 L 234.484375 445.675781 C 233.9375 446.359375 233.117188 446.742188 232.269531 446.742188 "/>
<path style=" stroke:none;fill-rule:nonzero;fill:rgb(63.867188%,26.660156%,0%);fill-opacity:1;" d="M 233.238281 494.769531 L 238.902344 498.847656 L 231.855469 502.925781 Z M 233.238281 494.769531 "/>
<path style=" stroke:none;fill-rule:nonzero;fill:rgb(63.867188%,26.660156%,0%);fill-opacity:1;" d="M 231.855469 505.761719 C 231.289063 505.761719 230.722656 505.589844 230.238281 505.253906 C 229.335938 504.625 228.878906 503.535156 229.058594 502.449219 L 230.441406 494.296875 C 230.605469 493.332031 231.257813 492.519531 232.160156 492.148438 C 233.0625 491.777344 234.097656 491.898438 234.890625 492.46875 L 240.558594 496.546875 C 241.339844 497.109375 241.78125 498.027344 241.734375 498.988281 C 241.6875 499.949219 241.15625 500.820313 240.324219 501.300781 L 233.273438 505.378906 C 232.835938 505.632813 232.34375 505.761719 231.855469 505.761719 "/>
<path style=" stroke:none;fill-rule:nonzero;fill:rgb(63.867188%,26.660156%,0%);fill-opacity:1;" d="M 207.808594 547.597656 L 208.496094 557.382813 L 198.960938 556.691406 Z M 207.808594 547.597656 "/>
<path style=" stroke:none;fill-rule:nonzero;fill:rgb(63.867188%,26.660156%,0%);fill-opacity:1;" d="M 205.238281 554.304688 L 205.4375 554.316406 L 205.425781 554.113281 Z M 208.496094 560.21875 C 208.429688 560.21875 208.359375 560.214844 208.289063 560.210938 L 198.753906 559.519531 C 197.65625 559.441406 196.703125 558.730469 196.308594 557.699219 C 195.917969 556.667969 196.160156 555.503906 196.929688 554.714844 L 205.777344 545.621094 C 206.558594 544.820313 207.734375 544.554688 208.78125 544.9375 C 209.832031 545.320313 210.558594 546.285156 210.636719 547.398438 L 211.324219 557.183594 C 211.382813 558.003906 211.078125 558.808594 210.496094 559.390625 C 209.964844 559.921875 209.242188 560.21875 208.496094 560.21875 "/>
<path style=" stroke:none;fill-rule:nonzero;fill:rgb(63.867188%,26.660156%,0%);fill-opacity:1;" d="M 160.671875 577.425781 L 168 581.984375 L 170.589844 573.601563 Z M 160.671875 577.425781 "/>
<path style=" stroke:none;fill-rule:nonzero;fill:rgb(63.867188%,26.660156%,0%);fill-opacity:1;" d="M 168 584.820313 C 167.476563 584.820313 166.957031 584.675781 166.5 584.390625 L 159.175781 579.828125 C 158.261719 579.261719 157.75 578.226563 157.851563 577.15625 C 157.953125 576.085938 158.652344 575.164063 159.652344 574.777344 L 169.570313 570.957031 C 170.585938 570.570313 171.730469 570.789063 172.527344 571.53125 C 173.320313 572.273438 173.621094 573.402344 173.300781 574.441406 L 170.707031 582.820313 C 170.445313 583.660156 169.8125 584.332031 168.988281 584.640625 C 168.667969 584.761719 168.332031 584.820313 168 584.820313 "/>
<path style=" stroke:none;fill-rule:nonzero;fill:rgb(61.131287%,32.93457%,12.156677%);fill-opacity:1;" d="M 125.875 576.566406 L 129.019531 583.503906 L 133.601563 577.441406 Z M 125.875 576.566406 "/>
<g clip-path="url(#clip1)" clip-rule="nonzero">
<path style=" stroke:none;fill-rule:nonzero;fill:rgb(63.867188%,26.660156%,0%);fill-opacity:1;" d="M 129.019531 586.339844 C 128.917969 586.339844 128.8125 586.335938 128.707031 586.320313 C 127.714844 586.210938 126.851563 585.585938 126.441406 584.675781 L 123.292969 577.738281 C 122.871094 576.808594 122.980469 575.726563 123.582031 574.898438 C 124.179688 574.074219 125.175781 573.632813 126.191406 573.75 L 133.921875 574.625 C 134.933594 574.738281 135.804688 575.390625 136.207031 576.324219 C 136.609375 577.261719 136.476563 578.339844 135.863281 579.152344 L 131.28125 585.214844 C 130.742188 585.929688 129.902344 586.339844 129.019531 586.339844 "/>
</g>
<path style=" stroke:none;fill-rule:nonzero;fill:rgb(61.131287%,32.93457%,12.156677%);fill-opacity:1;" d="M 100.433594 559.796875 L 99.445313 566.089844 L 104.609375 564.273438 Z M 100.433594 559.796875 "/>
<path style=" stroke:none;fill-rule:nonzero;fill:rgb(63.867188%,26.660156%,0%);fill-opacity:1;" d="M 99.441406 568.925781 C 98.789063 568.925781 98.144531 568.699219 97.628906 568.269531 C 96.863281 567.628906 96.488281 566.636719 96.644531 565.648438 L 97.636719 559.355469 C 97.804688 558.28125 98.570313 557.402344 99.605469 557.085938 C 100.640625 556.773438 101.769531 557.070313 102.507813 557.863281 L 106.683594 562.339844 C 107.335938 563.042969 107.589844 564.023438 107.363281 564.949219 C 107.132813 565.878906 106.453125 566.628906 105.550781 566.945313 L 100.382813 568.765625 C 100.078125 568.871094 99.757813 568.925781 99.441406 568.925781 "/>
<path style=" stroke:none;fill-rule:nonzero;fill:rgb(63.867188%,26.660156%,0%);fill-opacity:1;" d="M 177.410156 512.515625 C 177.34375 512.515625 177.273438 512.511719 177.203125 512.507813 C 175.640625 512.394531 174.46875 511.039063 174.578125 509.476563 C 176.390625 484.429688 170.023438 458.992188 156.167969 435.910156 C 153.941406 432.195313 151.621094 428.460938 149.378906 424.851563 C 135.125 401.90625 120.390625 378.179688 117.71875 342.527344 C 114.703125 302.363281 129.804688 277.359375 145.789063 250.886719 L 147.328125 248.34375 C 163.214844 221.984375 169.148438 205.566406 169.203125 205.402344 C 169.730469 203.929688 171.351563 203.160156 172.828125 203.6875 C 174.300781 204.210938 175.070313 205.835938 174.546875 207.308594 C 174.300781 207.992188 168.359375 224.425781 152.183594 251.269531 L 150.644531 253.816406 C 135.140625 279.492188 120.492188 303.746094 123.371094 342.105469 C 125.941406 376.371094 139.664063 398.464844 154.195313 421.859375 C 156.449219 425.488281 158.78125 429.242188 161.03125 432.992188 C 175.488281 457.078125 182.128906 483.667969 180.234375 509.886719 C 180.128906 511.378906 178.882813 512.515625 177.410156 512.515625 "/>
<path style=" stroke:none;fill-rule:nonzero;fill:rgb(63.867188%,26.660156%,0%);fill-opacity:1;" d="M 180.890625 260.605469 C 140.242188 260.605469 115.632813 244.292969 114.429688 243.480469 C 113.132813 242.601563 112.792969 240.839844 113.671875 239.542969 C 114.546875 238.246094 116.308594 237.90625 117.605469 238.785156 C 117.9375 239.007813 151.222656 260.957031 203.246094 253.265625 C 204.789063 253.035156 206.234375 254.109375 206.464844 255.65625 C 206.691406 257.203125 205.621094 258.644531 204.074219 258.875 C 195.867188 260.085938 188.121094 260.605469 180.890625 260.605469 "/>
<path style=" stroke:none;fill-rule:nonzero;fill:rgb(63.867188%,26.660156%,0%);fill-opacity:1;" d="M 138.828125 318.175781 C 93.746094 318.175781 65.023438 304.730469 63.386719 303.941406 C 61.976563 303.265625 61.382813 301.574219 62.058594 300.164063 C 62.734375 298.753906 64.425781 298.15625 65.835938 298.832031 C 66.375 299.089844 120.460938 324.3125 195.871094 305.28125 C 197.386719 304.894531 198.929688 305.820313 199.3125 307.339844 C 199.695313 308.855469 198.773438 310.398438 197.257813 310.777344 C 175.785156 316.199219 156.101563 318.175781 138.828125 318.175781 "/>
<path style=" stroke:none;fill-rule:nonzero;fill:rgb(63.867188%,26.660156%,0%);fill-opacity:1;" d="M 86.140625 387.476563 C 80.945313 387.476563 77.9375 387.171875 77.445313 387.113281 C 75.890625 386.941406 74.769531 385.542969 74.941406 383.984375 C 75.113281 382.429688 76.507813 381.308594 78.066406 381.480469 C 78.585938 381.535156 130.894531 386.703125 201.808594 348.4375 C 203.183594 347.691406 204.90625 348.207031 205.648438 349.585938 C 206.390625 350.964844 205.878906 352.683594 204.5 353.425781 C 148.1875 383.8125 104.109375 387.476563 86.140625 387.476563 "/>
<path style=" stroke:none;fill-rule:nonzero;fill:rgb(63.867188%,26.660156%,0%);fill-opacity:1;" d="M 140.453125 440.957031 C 139.195313 440.957031 138.042969 440.109375 137.710938 438.835938 C 137.316406 437.320313 138.226563 435.773438 139.742188 435.378906 C 140.195313 435.261719 185.445313 423.210938 215.898438 393.265625 C 217.015625 392.167969 218.8125 392.183594 219.910156 393.300781 C 221.007813 394.417969 220.992188 396.210938 219.875 397.308594 C 188.3125 428.339844 143.078125 440.367188 141.167969 440.863281 C 140.929688 440.929688 140.6875 440.957031 140.453125 440.957031 "/>
<path style=" stroke:none;fill-rule:nonzero;fill:rgb(63.867188%,26.660156%,0%);fill-opacity:1;" d="M 174.503906 476.027344 C 173.296875 476.027344 172.179688 475.25 171.800781 474.039063 C 171.332031 472.542969 172.164063 470.953125 173.660156 470.484375 C 174.085938 470.355469 216.46875 456.921875 228.832031 437.648438 C 229.679688 436.332031 231.429688 435.949219 232.75 436.792969 C 234.066406 437.640625 234.449219 439.394531 233.605469 440.710938 C 220.128906 461.71875 177.171875 475.328125 175.351563 475.898438 C 175.066406 475.984375 174.785156 476.027344 174.503906 476.027344 "/>
<path style=" stroke:none;fill-rule:nonzero;fill:rgb(63.867188%,26.660156%,0%);fill-opacity:1;" d="M 200.210938 510.484375 C 186.867188 510.484375 178.339844 505.71875 177.757813 505.382813 C 176.398438 504.601563 175.933594 502.867188 176.714844 501.511719 C 177.496094 500.152344 179.226563 499.6875 180.582031 500.464844 C 181.480469 500.976563 202.210938 512.359375 230.15625 496.140625 C 231.511719 495.355469 233.242188 495.816406 234.03125 497.171875 C 234.816406 498.527344 234.355469 500.261719 233 501.046875 C 220.511719 508.292969 209.253906 510.484375 200.210938 510.484375 "/>
<path style=" stroke:none;fill-rule:nonzero;fill:rgb(63.867188%,26.660156%,0%);fill-opacity:1;" d="M 203.15625 555.324219 C 202.902344 555.324219 202.648438 555.292969 202.398438 555.222656 C 178.980469 548.742188 171.046875 529.949219 170.722656 529.152344 C 170.128906 527.707031 170.820313 526.050781 172.269531 525.457031 C 173.71875 524.863281 175.367188 525.554688 175.964844 527 C 176.039063 527.175781 183.269531 544.046875 203.910156 549.757813 C 205.417969 550.175781 206.304688 551.738281 205.886719 553.246094 C 205.539063 554.503906 204.398438 555.324219 203.15625 555.324219 "/>
<path style=" stroke:none;fill-rule:nonzero;fill:rgb(63.867188%,26.660156%,0%);fill-opacity:1;" d="M 165.632813 579.402344 C 164.84375 579.402344 164.054688 579.070313 163.492188 578.429688 C 153.066406 566.4375 151.648438 546.855469 151.59375 546.027344 C 151.488281 544.46875 152.667969 543.117188 154.230469 543.011719 C 155.761719 542.894531 157.140625 544.089844 157.246094 545.648438 C 157.261719 545.832031 158.609375 564.171875 167.769531 574.707031 C 168.800781 575.886719 168.675781 577.679688 167.492188 578.707031 C 166.957031 579.171875 166.292969 579.402344 165.632813 579.402344 "/>
<path style=" stroke:none;fill-rule:nonzero;fill:rgb(63.867188%,26.660156%,0%);fill-opacity:1;" d="M 129.738281 582.871094 C 128.5 582.871094 127.367188 582.058594 127.011719 580.808594 C 123.558594 568.632813 130.632813 548.804688 130.9375 547.96875 C 131.46875 546.496094 133.09375 545.734375 134.566406 546.265625 C 136.035156 546.796875 136.800781 548.421875 136.269531 549.894531 C 136.203125 550.082031 129.511719 568.84375 132.464844 579.261719 C 132.894531 580.769531 132.019531 582.335938 130.511719 582.761719 C 130.253906 582.835938 129.992188 582.871094 129.738281 582.871094 "/>
<path style=" stroke:none;fill-rule:nonzero;fill:rgb(63.867188%,26.660156%,0%);fill-opacity:1;" d="M 102.027344 565.777344 C 101.792969 565.777344 101.554688 565.746094 101.316406 565.6875 C 99.800781 565.296875 98.890625 563.75 99.28125 562.234375 C 102.859375 548.363281 118.519531 539.296875 119.183594 538.917969 C 120.546875 538.140625 122.277344 538.617188 123.050781 539.976563 C 123.824219 541.335938 123.351563 543.066406 121.996094 543.839844 C 121.800781 543.953125 107.738281 552.144531 104.769531 563.648438 C 104.441406 564.929688 103.289063 565.777344 102.027344 565.777344 "/>
<path style=" stroke:none;fill-rule:nonzero;fill:rgb(63.867188%,26.660156%,0%);fill-opacity:1;" d="M 212.597656 246.820313 L 218.203125 254.863281 C 221.835938 246.292969 230.082031 228.496094 240.300781 217 L 224.445313 215.980469 Z M 218.859375 263.605469 C 217.941406 263.605469 217.070313 263.15625 216.535156 262.390625 L 207.085938 248.824219 C 206.550781 248.054688 206.429688 247.066406 206.765625 246.191406 L 219.898438 212 C 220.34375 210.84375 221.484375 210.109375 222.726563 210.1875 L 246.917969 211.746094 C 248.0625 211.820313 249.054688 212.578125 249.421875 213.667969 C 249.789063 214.757813 249.460938 215.960938 248.59375 216.714844 C 233.867188 229.523438 221.636719 261.453125 221.511719 261.777344 C 221.140625 262.757813 220.253906 263.453125 219.210938 263.582031 C 219.09375 263.597656 218.976563 263.605469 218.859375 263.605469 "/>
<path style=" stroke:none;fill-rule:nonzero;fill:rgb(63.867188%,26.660156%,0%);fill-opacity:1;" d="M 256.703125 150.53125 L 258.710938 151.046875 C 264.109375 152.433594 269.339844 153.777344 273.585938 155.160156 C 265.117188 135.089844 269.320313 110.65625 272.65625 97.660156 C 272.046875 98.136719 271.414063 98.632813 270.757813 99.144531 C 268.460938 100.933594 265.859375 102.960938 263.027344 105.242188 C 253.074219 113.261719 244.476563 120.09375 240.320313 123.386719 C 241.8125 130.601563 242.523438 138.1875 242.4375 145.984375 Z M 279.714844 163.671875 C 279.453125 163.671875 279.191406 163.636719 278.9375 163.5625 C 278.652344 163.480469 278.378906 163.355469 278.136719 163.191406 C 274.945313 161.066406 265.574219 158.660156 257.300781 156.539063 L 255.210938 156 C 255.160156 155.988281 255.109375 155.972656 255.058594 155.957031 L 238.703125 150.746094 C 237.496094 150.363281 236.691406 149.226563 236.730469 147.960938 C 236.984375 139.246094 236.203125 130.8125 234.410156 122.886719 C 234.195313 121.9375 234.480469 120.945313 235.171875 120.257813 C 235.171875 120.257813 235.316406 120.117188 235.621094 119.875 C 239.128906 117.101563 248.46875 109.691406 259.472656 100.828125 C 262.339844 98.515625 264.960938 96.476563 267.269531 94.671875 C 271.082031 91.699219 274.089844 89.355469 276.070313 87.484375 C 276.128906 87.425781 276.191406 87.371094 276.257813 87.320313 C 277.246094 86.535156 278.65625 86.492188 279.6875 87.230469 C 280.714844 87.972656 281.140625 89.296875 280.710938 90.484375 C 280.558594 90.910156 265.597656 133.058594 282.113281 159.328125 C 282.738281 160.320313 282.6875 161.597656 281.980469 162.539063 C 281.4375 163.261719 280.59375 163.671875 279.714844 163.671875 "/>
<path style=" stroke:none;fill-rule:nonzero;fill:rgb(63.867188%,26.660156%,0%);fill-opacity:1;" d="M 230 193.410156 L 230.011719 193.410156 Z M 233.382813 192.324219 C 236.710938 194.679688 243.746094 199.730469 249.195313 204.128906 C 251.21875 189.640625 260.117188 177.566406 266.796875 170.320313 C 256.347656 172.441406 243.550781 174.421875 238.601563 175.164063 C 238.265625 176.519531 237.902344 177.882813 237.523438 179.234375 C 236.367188 183.332031 235.007813 187.632813 233.382813 192.324219 Z M 251.613281 212.742188 C 250.914063 212.742188 250.226563 212.484375 249.691406 211.988281 C 243.691406 206.460938 229.960938 196.839844 228.414063 195.761719 C 228.277344 195.664063 228.113281 195.535156 227.996094 195.417969 C 227.222656 194.644531 226.964844 193.496094 227.328125 192.46875 C 229.230469 187.09375 230.78125 182.261719 232.066406 177.695313 C 232.601563 175.800781 233.09375 173.882813 233.535156 171.992188 C 233.800781 170.867188 234.722656 170.019531 235.863281 169.839844 C 235.871094 169.839844 235.953125 169.828125 235.960938 169.824219 C 238.851563 169.402344 264.519531 165.601563 275.425781 162.496094 C 275.503906 162.476563 275.582031 162.457031 275.660156 162.441406 C 276.941406 162.191406 278.242188 162.847656 278.789063 164.03125 C 279.335938 165.21875 279.015625 166.621094 277.996094 167.433594 C 277.765625 167.621094 254.570313 186.449219 254.445313 209.921875 C 254.441406 211.042969 253.773438 212.058594 252.742188 212.507813 C 252.378906 212.664063 251.996094 212.742188 251.613281 212.742188 "/>
<path style=" stroke:none;fill-rule:nonzero;fill:rgb(63.867188%,26.660156%,0%);fill-opacity:1;" d="M 227.253906 92.101563 C 234.929688 92.554688 250.085938 88.222656 261.304688 85.007813 C 265.117188 83.914063 268.320313 83.007813 270.988281 82.308594 C 246.289063 67.933594 229.339844 37.796875 222.433594 23.691406 C 222.132813 24.882813 221.816406 26.125 221.488281 27.414063 C 217.742188 42.148438 210.855469 69.234375 213.09375 76.523438 C 218.5 81.039063 223.257813 86.269531 227.253906 92.101563 Z M 228.445313 97.800781 C 227.285156 97.800781 226.210938 97.734375 225.230469 97.589844 C 224.433594 97.472656 223.726563 97.019531 223.28125 96.347656 C 219.304688 90.328125 214.46875 84.972656 208.914063 80.425781 C 208.570313 80.144531 208.300781 79.785156 208.117188 79.382813 C 204.769531 71.847656 209.703125 50.757813 215.996094 26.019531 C 217.160156 21.4375 218.164063 17.484375 218.851563 14.472656 C 219.125 13.269531 220.144531 12.382813 221.378906 12.277344 C 222.617188 12.175781 223.765625 12.878906 224.234375 14.023438 C 224.449219 14.546875 246.273438 66.632813 280.9375 80.9375 C 282.222656 81.46875 282.933594 82.847656 282.617188 84.199219 C 282.304688 85.550781 281.046875 86.492188 279.671875 86.386719 C 277.539063 86.25 270.089844 88.390625 262.863281 90.460938 C 250.761719 93.925781 237.234375 97.800781 228.445313 97.800781 "/>
<path style=" stroke:none;fill-rule:nonzero;fill:rgb(63.867188%,26.660156%,0%);fill-opacity:1;" d="M 164.535156 56.609375 C 167.722656 57.042969 171.003906 57.617188 174.304688 58.320313 C 175.402344 58.554688 176.507813 58.808594 177.597656 59.074219 C 179.058594 58.550781 184.023438 56.191406 190.5625 46.925781 C 192.351563 44.390625 194.53125 41.238281 196.890625 37.828125 C 201.214844 31.578125 206.246094 24.304688 210.542969 18.425781 C 182.597656 26.09375 159.136719 17.054688 148.84375 11.84375 C 151.390625 24.863281 156.382813 49.246094 164.535156 56.609375 Z M 177.632813 64.839844 C 177.398438 64.839844 177.164063 64.8125 176.933594 64.753906 C 175.683594 64.4375 174.398438 64.136719 173.121094 63.863281 C 169.6875 63.132813 166.273438 62.546875 162.976563 62.121094 C 162.464844 62.054688 161.980469 61.851563 161.578125 61.53125 C 151.152344 53.273438 145.855469 26.136719 143.011719 11.558594 C 142.65625 9.757813 142.351563 8.183594 142.085938 6.917969 C 141.828125 5.6875 142.410156 4.433594 143.519531 3.839844 C 144.4375 3.34375 145.558594 3.394531 146.425781 3.972656 C 147.75 4.847656 179.269531 25.238281 217.351563 10.179688 C 218.558594 9.703125 219.925781 10.101563 220.6875 11.148438 C 221.445313 12.191406 221.40625 13.617188 220.585938 14.617188 C 215.925781 20.28125 207.957031 31.800781 201.554688 41.054688 C 199.183594 44.480469 196.992188 47.648438 195.191406 50.195313 C 185.546875 63.863281 178.238281 64.792969 177.933594 64.824219 C 177.832031 64.835938 177.730469 64.839844 177.632813 64.839844 "/>
<path style=" stroke:none;fill-rule:nonzero;fill:rgb(63.867188%,26.660156%,0%);fill-opacity:1;" d="M 90.625 42.464844 C 98.011719 49.847656 109.605469 60.882813 116.183594 62.011719 C 120.484375 60.179688 125.023438 58.71875 129.710938 57.664063 C 131.058594 55.308594 134.589844 48.195313 136.257813 35.984375 C 137.03125 30.316406 137.671875 24.382813 138.238281 19.144531 C 138.304688 18.527344 138.371094 17.921875 138.4375 17.324219 C 126.089844 32.9375 112.957031 38.941406 103.484375 41.15625 C 98.539063 42.3125 94.136719 42.574219 90.625 42.464844 Z M 116.609375 67.753906 C 116.535156 67.753906 116.46875 67.75 116.398438 67.746094 C 107.675781 67.097656 94.957031 54.921875 83.71875 43.558594 C 82.578125 42.40625 81.574219 41.386719 80.738281 40.570313 C 79.808594 39.652344 79.621094 38.21875 80.289063 37.097656 C 80.960938 35.972656 82.308594 35.453125 83.558594 35.835938 C 84.84375 36.222656 115.523438 44.875 140.238281 4.84375 C 140.953125 3.691406 142.378906 3.203125 143.648438 3.679688 C 144.914063 4.15625 145.671875 5.464844 145.449219 6.800781 C 144.960938 9.726563 144.457031 14.375 143.875 19.757813 C 143.304688 25.027344 142.660156 31.003906 141.871094 36.75 C 139.527344 53.910156 133.714844 61.941406 133.65625 62.011719 C 133.246094 62.492188 132.691406 62.824219 132.074219 62.953125 C 127.078125 63.996094 122.261719 65.53125 117.746094 67.515625 C 117.386719 67.671875 117 67.753906 116.609375 67.753906 "/>
<path style=" stroke:none;fill-rule:nonzero;fill:rgb(63.867188%,26.660156%,0%);fill-opacity:1;" d="M 200.753906 296.875 C 200.320313 301.597656 200.113281 306.308594 200.136719 310.945313 C 214.347656 298.105469 225.378906 282.742188 232.839844 270.625 C 217.789063 285.773438 205.386719 294.027344 200.753906 296.875 Z M 197.394531 318.375 C 196.71875 318.375 196.058594 318.132813 195.539063 317.6875 C 194.945313 317.171875 194.589844 316.433594 194.558594 315.644531 C 194.3125 308.863281 194.542969 301.882813 195.246094 294.898438 C 195.335938 293.996094 195.851563 293.191406 196.636719 292.734375 C 200.601563 290.417969 221.539063 277.425781 244.535156 249.121094 C 245.429688 248.023438 246.996094 247.75 248.210938 248.488281 C 249.421875 249.226563 249.898438 250.746094 249.332031 252.046875 C 248.640625 253.621094 232.089844 290.996094 201.359375 317.421875 C 200.960938 317.765625 200.46875 317.992188 199.941406 318.074219 C 199.941406 318.074219 199.070313 318.207031 197.703125 318.359375 C 197.601563 318.371094 197.496094 318.375 197.394531 318.375 "/>
<path style=" stroke:none;fill-rule:nonzero;fill:rgb(63.867188%,26.660156%,0%);fill-opacity:1;" d="M 200.488281 320.316406 C 200.789063 324.472656 201.277344 328.652344 201.949219 332.792969 C 219.972656 325.046875 243.882813 305.21875 260.839844 289.886719 C 241.015625 301.074219 216.863281 312.703125 200.488281 320.316406 Z M 199.761719 339.566406 C 199.28125 339.566406 198.804688 339.445313 198.375 339.203125 C 197.640625 338.796875 197.128906 338.078125 196.972656 337.253906 C 195.824219 331.128906 195.0625 324.894531 194.707031 318.726563 C 194.640625 317.566406 195.289063 316.480469 196.34375 315.988281 C 220.296875 304.898438 263.292969 284.125 282.140625 269.667969 C 283.320313 268.761719 285.003906 268.921875 285.988281 270.039063 C 286.972656 271.152344 286.929688 272.839844 285.886719 273.902344 C 283.84375 275.984375 235.472656 324.972656 203.464844 338.308594 C 202.527344 338.699219 201.636719 339.050781 200.769531 339.382813 C 200.441406 339.507813 200.101563 339.566406 199.761719 339.566406 "/>
<g clip-path="url(#clip2)" clip-rule="nonzero">
<path style=" stroke:none;fill-rule:nonzero;fill:rgb(63.867188%,26.660156%,0%);fill-opacity:1;" d="M 203.5625 341.144531 C 204.351563 344.667969 205.277344 348.207031 206.335938 351.71875 C 252.476563 337.507813 287.867188 325.886719 305.078125 319.378906 C 280.960938 322.824219 228.710938 333.296875 203.5625 341.144531 Z M 204.46875 358.09375 C 203.265625 358.09375 202.15625 357.328125 201.769531 356.125 C 200.035156 350.726563 198.59375 345.234375 197.476563 339.796875 C 197.183594 338.386719 197.996094 336.984375 199.367188 336.535156 C 215.261719 331.300781 246.378906 324.410156 268.191406 320.097656 C 316.214844 310.609375 318.949219 312.582031 320.121094 313.421875 C 320.949219 314.019531 321.425781 314.933594 321.433594 315.929688 C 321.441406 318.691406 321.453125 320.515625 273.105469 336.480469 C 248.34375 344.652344 219.996094 353.453125 205.300781 357.96875 C 205.023438 358.054688 204.742188 358.09375 204.46875 358.09375 "/>
</g>
<path style=" stroke:none;fill-rule:nonzero;fill:rgb(63.867188%,26.660156%,0%);fill-opacity:1;" d="M 208.667969 358.855469 C 209.570313 361.488281 210.449219 364.050781 211.308594 366.558594 C 227.152344 366.007813 249.480469 365.511719 269.855469 366.0625 C 249.734375 361.914063 225.617188 358.046875 208.667969 358.855469 Z M 307.878906 375.007813 C 307.6875 375.007813 307.496094 374.988281 307.304688 374.949219 C 284.0625 370.1875 231.101563 371.507813 209.40625 372.300781 C 208.183594 372.328125 207.023438 371.566406 206.621094 370.382813 C 205.417969 366.851563 204.179688 363.230469 202.878906 359.457031 C 202.640625 358.773438 202.417969 358.089844 202.191406 357.40625 L 202.117188 357.175781 C 201.847656 356.355469 201.96875 355.460938 202.4375 354.738281 C 202.910156 354.019531 203.683594 353.550781 204.539063 353.46875 C 238.769531 350.164063 305.796875 368.652344 308.632813 369.441406 C 310.105469 369.851563 310.988281 371.351563 310.628906 372.835938 C 310.316406 374.132813 309.160156 375.007813 307.878906 375.007813 "/>
<path style=" stroke:none;fill-rule:nonzero;fill:rgb(63.867188%,26.660156%,0%);fill-opacity:1;" d="M 217.808594 385.875 C 228.1875 388.445313 240.449219 391.746094 251.355469 395.382813 C 240.859375 387.976563 226.863281 379.226563 214.164063 374.96875 C 215.488281 378.890625 216.695313 382.496094 217.808594 385.875 Z M 269.539063 408.546875 C 269.097656 408.546875 268.652344 408.445313 268.238281 408.230469 C 254.992188 401.371094 229.152344 394.492188 214.929688 391.003906 C 213.980469 390.769531 213.21875 390.066406 212.910156 389.136719 C 211.210938 383.953125 209.296875 378.234375 207.054688 371.652344 C 206.722656 370.675781 206.949219 369.59375 207.644531 368.828125 C 208.339844 368.066406 209.394531 367.738281 210.398438 367.980469 C 236.800781 374.300781 269.980469 402.363281 271.378906 403.554688 C 272.476563 404.488281 272.699219 406.097656 271.894531 407.292969 C 271.351563 408.101563 270.457031 408.546875 269.539063 408.546875 "/>
<path style=" stroke:none;fill-rule:nonzero;fill:rgb(89.0625%,47.459412%,0%);fill-opacity:1;" d="M 161.425781 131.75 C 161.425781 148.722656 148.261719 162.496094 132.035156 162.496094 C 117.519531 162.496094 105.457031 151.492188 103.082031 137.027344 C 102.78125 135.316406 102.632813 133.554688 102.632813 131.75 C 102.632813 114.761719 115.796875 100.992188 132.035156 100.992188 C 132.957031 100.992188 133.867188 101.03125 134.777344 101.128906 C 149.714844 102.566406 161.425781 115.726563 161.425781 131.75 "/>
<path style=" stroke:none;fill-rule:nonzero;fill:rgb(100%,100%,100%);fill-opacity:1;" d="M 160.527344 135.828125 C 160.527344 151.390625 148.464844 164.015625 133.585938 164.015625 C 120.273438 164.015625 109.21875 153.925781 107.039063 140.667969 C 106.765625 139.097656 106.628906 137.480469 106.628906 135.828125 C 106.628906 120.253906 118.695313 107.628906 133.585938 107.628906 C 134.433594 107.628906 135.265625 107.664063 136.097656 107.753906 C 149.792969 109.070313 160.527344 121.136719 160.527344 135.828125 "/>
<path style=" stroke:none;fill-rule:nonzero;fill:rgb(13.719177%,12.156677%,12.547302%);fill-opacity:1;" d="M 144.792969 129.71875 C 143.535156 142.832031 133.4375 152.585938 122.226563 151.5 C 115.683594 150.867188 110.199219 146.675781 107.039063 140.667969 C 106.765625 139.097656 106.628906 137.480469 106.628906 135.828125 C 106.628906 120.253906 118.695313 107.628906 133.585938 107.628906 C 134.433594 107.628906 135.265625 107.664063 136.097656 107.753906 C 142.082031 112.378906 145.664063 120.664063 144.792969 129.71875 "/>
<path style=" stroke:none;fill-rule:nonzero;fill:rgb(100%,100%,100%);fill-opacity:1;" d="M 128.207031 122.460938 C 128.207031 125.3125 125.898438 127.621094 123.050781 127.621094 C 120.199219 127.621094 117.890625 125.3125 117.890625 122.460938 C 117.890625 119.609375 120.199219 117.300781 123.050781 117.300781 C 125.898438 117.300781 128.207031 119.609375 128.207031 122.460938 "/>
<path style=" stroke:none;fill-rule:nonzero;fill:rgb(100%,74.021912%,14.109802%);fill-opacity:1;" d="M 92.625 58.695313 C 92.03125 59.191406 97.324219 73.257813 98.523438 73.347656 C 99.71875 73.441406 102.023438 71.230469 102.207031 70.492188 C 102.390625 69.753906 93.175781 58.234375 92.625 58.695313 "/>
<path style=" stroke:none;fill-rule:nonzero;fill:rgb(100%,74.021912%,14.109802%);fill-opacity:1;" d="M 143.210938 37.6875 C 142.652344 37.925781 139.15625 58.972656 139.25 60.171875 C 139.34375 61.367188 143.765625 61.183594 144.316406 60.539063 C 144.871094 59.894531 143.726563 37.46875 143.210938 37.6875 "/>
<path style=" stroke:none;fill-rule:nonzero;fill:rgb(100%,74.021912%,14.109802%);fill-opacity:1;" d="M 203.519531 42.25 C 203.351563 41.363281 193.84375 54.9375 191.632813 58.683594 C 189.421875 62.429688 187.902344 63.949219 188.453125 64.226563 C 189.007813 64.503906 193.707031 66.300781 194.535156 67.128906 C 195.363281 67.957031 203.675781 43.078125 203.519531 42.25 "/>
<path style=" stroke:none;fill-rule:nonzero;fill:rgb(100%,74.021912%,14.109802%);fill-opacity:1;" d="M 253.777344 95.652344 C 254.132813 94.539063 234.835938 97.742188 233.453125 99.332031 C 232.667969 100.234375 233.359375 102.835938 236 102.464844 C 238.640625 102.097656 253.441406 96.703125 253.777344 95.652344 "/>
<path style=" stroke:none;fill-rule:nonzero;fill:rgb(100%,93.75%,38.818359%);fill-opacity:1;" d="M 96.761719 92.785156 C 82.726563 104.285156 85.472656 116.777344 89.574219 115.625 C 93.675781 114.46875 101.902344 103.640625 109.949219 98.960938 C 120.921875 92.578125 115.496094 77.429688 96.761719 92.785156 "/>
<path style=" stroke:none;fill-rule:nonzero;fill:rgb(100%,93.75%,38.818359%);fill-opacity:1;" d="M 56.320313 147.984375 C 48.617188 152.445313 28.125 151.578125 20.105469 147.984375 C 12.089844 144.390625 10.433594 140.660156 10.15625 144.324219 C 9.878906 147.984375 8.496094 154.863281 27.570313 156.402344 C 46.644531 157.9375 61.121094 153.171875 63.144531 149.609375 C 65.164063 146.050781 61.570313 144.945313 56.320313 147.984375 "/>
</g>
</svg>
